G75*
%MOIN*%
%OFA0B0*%
%FSLAX25Y25*%
%IPPOS*%
%LPD*%
%AMOC8*
5,1,8,0,0,1.08239X$1,22.5*
%
%ADD10C,0.00000*%
%ADD11R,0.09646X0.02087*%
D10*
X0001800Y0001800D02*
X0001800Y0746548D01*
X0786879Y0746548D01*
X0786879Y0001800D01*
X0001800Y0001800D01*
X0088796Y0432540D02*
X0088798Y0432621D01*
X0088804Y0432703D01*
X0088814Y0432784D01*
X0088828Y0432864D01*
X0088845Y0432943D01*
X0088867Y0433022D01*
X0088892Y0433099D01*
X0088921Y0433176D01*
X0088954Y0433250D01*
X0088991Y0433323D01*
X0089030Y0433394D01*
X0089074Y0433463D01*
X0089120Y0433530D01*
X0089170Y0433594D01*
X0089223Y0433656D01*
X0089279Y0433716D01*
X0089337Y0433772D01*
X0089399Y0433826D01*
X0089463Y0433877D01*
X0089529Y0433924D01*
X0089597Y0433968D01*
X0089668Y0434009D01*
X0089740Y0434046D01*
X0089815Y0434080D01*
X0089890Y0434110D01*
X0089968Y0434136D01*
X0090046Y0434159D01*
X0090125Y0434177D01*
X0090205Y0434192D01*
X0090286Y0434203D01*
X0090367Y0434210D01*
X0090449Y0434213D01*
X0090530Y0434212D01*
X0090611Y0434207D01*
X0090692Y0434198D01*
X0090773Y0434185D01*
X0090853Y0434168D01*
X0090931Y0434148D01*
X0091009Y0434123D01*
X0091086Y0434095D01*
X0091161Y0434063D01*
X0091234Y0434028D01*
X0091305Y0433989D01*
X0091375Y0433946D01*
X0091442Y0433901D01*
X0091508Y0433852D01*
X0091570Y0433800D01*
X0091630Y0433744D01*
X0091687Y0433686D01*
X0091742Y0433626D01*
X0091793Y0433562D01*
X0091841Y0433497D01*
X0091886Y0433429D01*
X0091928Y0433359D01*
X0091966Y0433287D01*
X0092001Y0433213D01*
X0092032Y0433138D01*
X0092059Y0433061D01*
X0092082Y0432983D01*
X0092102Y0432904D01*
X0092118Y0432824D01*
X0092130Y0432743D01*
X0092138Y0432662D01*
X0092142Y0432581D01*
X0092142Y0432499D01*
X0092138Y0432418D01*
X0092130Y0432337D01*
X0092118Y0432256D01*
X0092102Y0432176D01*
X0092082Y0432097D01*
X0092059Y0432019D01*
X0092032Y0431942D01*
X0092001Y0431867D01*
X0091966Y0431793D01*
X0091928Y0431721D01*
X0091886Y0431651D01*
X0091841Y0431583D01*
X0091793Y0431518D01*
X0091742Y0431454D01*
X0091687Y0431394D01*
X0091630Y0431336D01*
X0091570Y0431280D01*
X0091508Y0431228D01*
X0091442Y0431179D01*
X0091375Y0431134D01*
X0091306Y0431091D01*
X0091234Y0431052D01*
X0091161Y0431017D01*
X0091086Y0430985D01*
X0091009Y0430957D01*
X0090931Y0430932D01*
X0090853Y0430912D01*
X0090773Y0430895D01*
X0090692Y0430882D01*
X0090611Y0430873D01*
X0090530Y0430868D01*
X0090449Y0430867D01*
X0090367Y0430870D01*
X0090286Y0430877D01*
X0090205Y0430888D01*
X0090125Y0430903D01*
X0090046Y0430921D01*
X0089968Y0430944D01*
X0089890Y0430970D01*
X0089815Y0431000D01*
X0089740Y0431034D01*
X0089668Y0431071D01*
X0089597Y0431112D01*
X0089529Y0431156D01*
X0089463Y0431203D01*
X0089399Y0431254D01*
X0089337Y0431308D01*
X0089279Y0431364D01*
X0089223Y0431424D01*
X0089170Y0431486D01*
X0089120Y0431550D01*
X0089074Y0431617D01*
X0089030Y0431686D01*
X0088991Y0431757D01*
X0088954Y0431830D01*
X0088921Y0431904D01*
X0088892Y0431981D01*
X0088867Y0432058D01*
X0088845Y0432137D01*
X0088828Y0432216D01*
X0088814Y0432296D01*
X0088804Y0432377D01*
X0088798Y0432459D01*
X0088796Y0432540D01*
X0148796Y0432540D02*
X0148798Y0432621D01*
X0148804Y0432703D01*
X0148814Y0432784D01*
X0148828Y0432864D01*
X0148845Y0432943D01*
X0148867Y0433022D01*
X0148892Y0433099D01*
X0148921Y0433176D01*
X0148954Y0433250D01*
X0148991Y0433323D01*
X0149030Y0433394D01*
X0149074Y0433463D01*
X0149120Y0433530D01*
X0149170Y0433594D01*
X0149223Y0433656D01*
X0149279Y0433716D01*
X0149337Y0433772D01*
X0149399Y0433826D01*
X0149463Y0433877D01*
X0149529Y0433924D01*
X0149597Y0433968D01*
X0149668Y0434009D01*
X0149740Y0434046D01*
X0149815Y0434080D01*
X0149890Y0434110D01*
X0149968Y0434136D01*
X0150046Y0434159D01*
X0150125Y0434177D01*
X0150205Y0434192D01*
X0150286Y0434203D01*
X0150367Y0434210D01*
X0150449Y0434213D01*
X0150530Y0434212D01*
X0150611Y0434207D01*
X0150692Y0434198D01*
X0150773Y0434185D01*
X0150853Y0434168D01*
X0150931Y0434148D01*
X0151009Y0434123D01*
X0151086Y0434095D01*
X0151161Y0434063D01*
X0151234Y0434028D01*
X0151305Y0433989D01*
X0151375Y0433946D01*
X0151442Y0433901D01*
X0151508Y0433852D01*
X0151570Y0433800D01*
X0151630Y0433744D01*
X0151687Y0433686D01*
X0151742Y0433626D01*
X0151793Y0433562D01*
X0151841Y0433497D01*
X0151886Y0433429D01*
X0151928Y0433359D01*
X0151966Y0433287D01*
X0152001Y0433213D01*
X0152032Y0433138D01*
X0152059Y0433061D01*
X0152082Y0432983D01*
X0152102Y0432904D01*
X0152118Y0432824D01*
X0152130Y0432743D01*
X0152138Y0432662D01*
X0152142Y0432581D01*
X0152142Y0432499D01*
X0152138Y0432418D01*
X0152130Y0432337D01*
X0152118Y0432256D01*
X0152102Y0432176D01*
X0152082Y0432097D01*
X0152059Y0432019D01*
X0152032Y0431942D01*
X0152001Y0431867D01*
X0151966Y0431793D01*
X0151928Y0431721D01*
X0151886Y0431651D01*
X0151841Y0431583D01*
X0151793Y0431518D01*
X0151742Y0431454D01*
X0151687Y0431394D01*
X0151630Y0431336D01*
X0151570Y0431280D01*
X0151508Y0431228D01*
X0151442Y0431179D01*
X0151375Y0431134D01*
X0151306Y0431091D01*
X0151234Y0431052D01*
X0151161Y0431017D01*
X0151086Y0430985D01*
X0151009Y0430957D01*
X0150931Y0430932D01*
X0150853Y0430912D01*
X0150773Y0430895D01*
X0150692Y0430882D01*
X0150611Y0430873D01*
X0150530Y0430868D01*
X0150449Y0430867D01*
X0150367Y0430870D01*
X0150286Y0430877D01*
X0150205Y0430888D01*
X0150125Y0430903D01*
X0150046Y0430921D01*
X0149968Y0430944D01*
X0149890Y0430970D01*
X0149815Y0431000D01*
X0149740Y0431034D01*
X0149668Y0431071D01*
X0149597Y0431112D01*
X0149529Y0431156D01*
X0149463Y0431203D01*
X0149399Y0431254D01*
X0149337Y0431308D01*
X0149279Y0431364D01*
X0149223Y0431424D01*
X0149170Y0431486D01*
X0149120Y0431550D01*
X0149074Y0431617D01*
X0149030Y0431686D01*
X0148991Y0431757D01*
X0148954Y0431830D01*
X0148921Y0431904D01*
X0148892Y0431981D01*
X0148867Y0432058D01*
X0148845Y0432137D01*
X0148828Y0432216D01*
X0148814Y0432296D01*
X0148804Y0432377D01*
X0148798Y0432459D01*
X0148796Y0432540D01*
X0148008Y0669548D02*
X0148010Y0669647D01*
X0148016Y0669746D01*
X0148026Y0669845D01*
X0148040Y0669943D01*
X0148058Y0670040D01*
X0148080Y0670137D01*
X0148105Y0670233D01*
X0148135Y0670327D01*
X0148168Y0670421D01*
X0148205Y0670513D01*
X0148246Y0670603D01*
X0148290Y0670692D01*
X0148338Y0670778D01*
X0148389Y0670863D01*
X0148444Y0670946D01*
X0148502Y0671026D01*
X0148563Y0671104D01*
X0148627Y0671180D01*
X0148694Y0671253D01*
X0148764Y0671323D01*
X0148837Y0671390D01*
X0148913Y0671454D01*
X0148991Y0671515D01*
X0149071Y0671573D01*
X0149154Y0671628D01*
X0149238Y0671679D01*
X0149325Y0671727D01*
X0149414Y0671771D01*
X0149504Y0671812D01*
X0149596Y0671849D01*
X0149690Y0671882D01*
X0149784Y0671912D01*
X0149880Y0671937D01*
X0149977Y0671959D01*
X0150074Y0671977D01*
X0150172Y0671991D01*
X0150271Y0672001D01*
X0150370Y0672007D01*
X0150469Y0672009D01*
X0150568Y0672007D01*
X0150667Y0672001D01*
X0150766Y0671991D01*
X0150864Y0671977D01*
X0150961Y0671959D01*
X0151058Y0671937D01*
X0151154Y0671912D01*
X0151248Y0671882D01*
X0151342Y0671849D01*
X0151434Y0671812D01*
X0151524Y0671771D01*
X0151613Y0671727D01*
X0151699Y0671679D01*
X0151784Y0671628D01*
X0151867Y0671573D01*
X0151947Y0671515D01*
X0152025Y0671454D01*
X0152101Y0671390D01*
X0152174Y0671323D01*
X0152244Y0671253D01*
X0152311Y0671180D01*
X0152375Y0671104D01*
X0152436Y0671026D01*
X0152494Y0670946D01*
X0152549Y0670863D01*
X0152600Y0670779D01*
X0152648Y0670692D01*
X0152692Y0670603D01*
X0152733Y0670513D01*
X0152770Y0670421D01*
X0152803Y0670327D01*
X0152833Y0670233D01*
X0152858Y0670137D01*
X0152880Y0670040D01*
X0152898Y0669943D01*
X0152912Y0669845D01*
X0152922Y0669746D01*
X0152928Y0669647D01*
X0152930Y0669548D01*
X0152928Y0669449D01*
X0152922Y0669350D01*
X0152912Y0669251D01*
X0152898Y0669153D01*
X0152880Y0669056D01*
X0152858Y0668959D01*
X0152833Y0668863D01*
X0152803Y0668769D01*
X0152770Y0668675D01*
X0152733Y0668583D01*
X0152692Y0668493D01*
X0152648Y0668404D01*
X0152600Y0668318D01*
X0152549Y0668233D01*
X0152494Y0668150D01*
X0152436Y0668070D01*
X0152375Y0667992D01*
X0152311Y0667916D01*
X0152244Y0667843D01*
X0152174Y0667773D01*
X0152101Y0667706D01*
X0152025Y0667642D01*
X0151947Y0667581D01*
X0151867Y0667523D01*
X0151784Y0667468D01*
X0151700Y0667417D01*
X0151613Y0667369D01*
X0151524Y0667325D01*
X0151434Y0667284D01*
X0151342Y0667247D01*
X0151248Y0667214D01*
X0151154Y0667184D01*
X0151058Y0667159D01*
X0150961Y0667137D01*
X0150864Y0667119D01*
X0150766Y0667105D01*
X0150667Y0667095D01*
X0150568Y0667089D01*
X0150469Y0667087D01*
X0150370Y0667089D01*
X0150271Y0667095D01*
X0150172Y0667105D01*
X0150074Y0667119D01*
X0149977Y0667137D01*
X0149880Y0667159D01*
X0149784Y0667184D01*
X0149690Y0667214D01*
X0149596Y0667247D01*
X0149504Y0667284D01*
X0149414Y0667325D01*
X0149325Y0667369D01*
X0149239Y0667417D01*
X0149154Y0667468D01*
X0149071Y0667523D01*
X0148991Y0667581D01*
X0148913Y0667642D01*
X0148837Y0667706D01*
X0148764Y0667773D01*
X0148694Y0667843D01*
X0148627Y0667916D01*
X0148563Y0667992D01*
X0148502Y0668070D01*
X0148444Y0668150D01*
X0148389Y0668233D01*
X0148338Y0668317D01*
X0148290Y0668404D01*
X0148246Y0668493D01*
X0148205Y0668583D01*
X0148168Y0668675D01*
X0148135Y0668769D01*
X0148105Y0668863D01*
X0148080Y0668959D01*
X0148058Y0669056D01*
X0148040Y0669153D01*
X0148026Y0669251D01*
X0148016Y0669350D01*
X0148010Y0669449D01*
X0148008Y0669548D01*
X0088008Y0669548D02*
X0088010Y0669647D01*
X0088016Y0669746D01*
X0088026Y0669845D01*
X0088040Y0669943D01*
X0088058Y0670040D01*
X0088080Y0670137D01*
X0088105Y0670233D01*
X0088135Y0670327D01*
X0088168Y0670421D01*
X0088205Y0670513D01*
X0088246Y0670603D01*
X0088290Y0670692D01*
X0088338Y0670778D01*
X0088389Y0670863D01*
X0088444Y0670946D01*
X0088502Y0671026D01*
X0088563Y0671104D01*
X0088627Y0671180D01*
X0088694Y0671253D01*
X0088764Y0671323D01*
X0088837Y0671390D01*
X0088913Y0671454D01*
X0088991Y0671515D01*
X0089071Y0671573D01*
X0089154Y0671628D01*
X0089238Y0671679D01*
X0089325Y0671727D01*
X0089414Y0671771D01*
X0089504Y0671812D01*
X0089596Y0671849D01*
X0089690Y0671882D01*
X0089784Y0671912D01*
X0089880Y0671937D01*
X0089977Y0671959D01*
X0090074Y0671977D01*
X0090172Y0671991D01*
X0090271Y0672001D01*
X0090370Y0672007D01*
X0090469Y0672009D01*
X0090568Y0672007D01*
X0090667Y0672001D01*
X0090766Y0671991D01*
X0090864Y0671977D01*
X0090961Y0671959D01*
X0091058Y0671937D01*
X0091154Y0671912D01*
X0091248Y0671882D01*
X0091342Y0671849D01*
X0091434Y0671812D01*
X0091524Y0671771D01*
X0091613Y0671727D01*
X0091699Y0671679D01*
X0091784Y0671628D01*
X0091867Y0671573D01*
X0091947Y0671515D01*
X0092025Y0671454D01*
X0092101Y0671390D01*
X0092174Y0671323D01*
X0092244Y0671253D01*
X0092311Y0671180D01*
X0092375Y0671104D01*
X0092436Y0671026D01*
X0092494Y0670946D01*
X0092549Y0670863D01*
X0092600Y0670779D01*
X0092648Y0670692D01*
X0092692Y0670603D01*
X0092733Y0670513D01*
X0092770Y0670421D01*
X0092803Y0670327D01*
X0092833Y0670233D01*
X0092858Y0670137D01*
X0092880Y0670040D01*
X0092898Y0669943D01*
X0092912Y0669845D01*
X0092922Y0669746D01*
X0092928Y0669647D01*
X0092930Y0669548D01*
X0092928Y0669449D01*
X0092922Y0669350D01*
X0092912Y0669251D01*
X0092898Y0669153D01*
X0092880Y0669056D01*
X0092858Y0668959D01*
X0092833Y0668863D01*
X0092803Y0668769D01*
X0092770Y0668675D01*
X0092733Y0668583D01*
X0092692Y0668493D01*
X0092648Y0668404D01*
X0092600Y0668318D01*
X0092549Y0668233D01*
X0092494Y0668150D01*
X0092436Y0668070D01*
X0092375Y0667992D01*
X0092311Y0667916D01*
X0092244Y0667843D01*
X0092174Y0667773D01*
X0092101Y0667706D01*
X0092025Y0667642D01*
X0091947Y0667581D01*
X0091867Y0667523D01*
X0091784Y0667468D01*
X0091700Y0667417D01*
X0091613Y0667369D01*
X0091524Y0667325D01*
X0091434Y0667284D01*
X0091342Y0667247D01*
X0091248Y0667214D01*
X0091154Y0667184D01*
X0091058Y0667159D01*
X0090961Y0667137D01*
X0090864Y0667119D01*
X0090766Y0667105D01*
X0090667Y0667095D01*
X0090568Y0667089D01*
X0090469Y0667087D01*
X0090370Y0667089D01*
X0090271Y0667095D01*
X0090172Y0667105D01*
X0090074Y0667119D01*
X0089977Y0667137D01*
X0089880Y0667159D01*
X0089784Y0667184D01*
X0089690Y0667214D01*
X0089596Y0667247D01*
X0089504Y0667284D01*
X0089414Y0667325D01*
X0089325Y0667369D01*
X0089239Y0667417D01*
X0089154Y0667468D01*
X0089071Y0667523D01*
X0088991Y0667581D01*
X0088913Y0667642D01*
X0088837Y0667706D01*
X0088764Y0667773D01*
X0088694Y0667843D01*
X0088627Y0667916D01*
X0088563Y0667992D01*
X0088502Y0668070D01*
X0088444Y0668150D01*
X0088389Y0668233D01*
X0088338Y0668317D01*
X0088290Y0668404D01*
X0088246Y0668493D01*
X0088205Y0668583D01*
X0088168Y0668675D01*
X0088135Y0668769D01*
X0088105Y0668863D01*
X0088080Y0668959D01*
X0088058Y0669056D01*
X0088040Y0669153D01*
X0088026Y0669251D01*
X0088016Y0669350D01*
X0088010Y0669449D01*
X0088008Y0669548D01*
D11*
X0081020Y0659706D03*
X0081020Y0656556D03*
X0081020Y0653406D03*
X0081020Y0650257D03*
X0081020Y0647107D03*
X0081020Y0643957D03*
X0081020Y0640808D03*
X0081020Y0637658D03*
X0081020Y0634509D03*
X0081020Y0631359D03*
X0081020Y0628209D03*
X0081020Y0625060D03*
X0081020Y0621910D03*
X0081020Y0618761D03*
X0081020Y0615611D03*
X0081020Y0612461D03*
X0081020Y0609312D03*
X0081020Y0606162D03*
X0081020Y0603013D03*
X0081020Y0599863D03*
X0081020Y0596713D03*
X0081020Y0593564D03*
X0081020Y0590414D03*
X0081020Y0587265D03*
X0081020Y0584115D03*
X0081020Y0580965D03*
X0081020Y0577816D03*
X0081020Y0574666D03*
X0081020Y0571517D03*
X0081020Y0568367D03*
X0081020Y0565217D03*
X0081020Y0562068D03*
X0081020Y0558918D03*
X0081020Y0555769D03*
X0081020Y0552619D03*
X0081020Y0549469D03*
X0081020Y0546320D03*
X0081020Y0543170D03*
X0081020Y0540020D03*
X0081020Y0536871D03*
X0081020Y0533721D03*
X0081020Y0530572D03*
X0081020Y0527422D03*
X0081020Y0524272D03*
X0081020Y0521123D03*
X0081020Y0517973D03*
X0081020Y0514824D03*
X0081020Y0511674D03*
X0081020Y0508524D03*
X0081020Y0505375D03*
X0081020Y0502225D03*
X0081020Y0499076D03*
X0081020Y0495926D03*
X0081020Y0492776D03*
X0081020Y0489627D03*
X0081020Y0486477D03*
X0081020Y0483328D03*
X0081020Y0480178D03*
X0081020Y0477028D03*
X0081020Y0473879D03*
X0081020Y0470729D03*
X0081020Y0467580D03*
X0081020Y0464430D03*
X0081020Y0461280D03*
X0081020Y0458131D03*
X0081020Y0454981D03*
X0081020Y0451831D03*
X0081020Y0448682D03*
X0081020Y0445532D03*
X0081020Y0442383D03*
X0099918Y0442383D03*
X0099918Y0445532D03*
X0099918Y0448682D03*
X0099918Y0451831D03*
X0099918Y0454981D03*
X0099918Y0458131D03*
X0099918Y0461280D03*
X0099918Y0464430D03*
X0099918Y0467580D03*
X0099918Y0470729D03*
X0099918Y0473879D03*
X0099918Y0477028D03*
X0099918Y0480178D03*
X0099918Y0483328D03*
X0099918Y0486477D03*
X0099918Y0489627D03*
X0099918Y0492776D03*
X0099918Y0495926D03*
X0099918Y0499076D03*
X0099918Y0502225D03*
X0099918Y0505375D03*
X0099918Y0508524D03*
X0099918Y0511674D03*
X0099918Y0514824D03*
X0099918Y0517973D03*
X0099918Y0521123D03*
X0099918Y0524272D03*
X0099918Y0527422D03*
X0099918Y0530572D03*
X0099918Y0533721D03*
X0099918Y0536871D03*
X0099918Y0540020D03*
X0099918Y0543170D03*
X0099918Y0546320D03*
X0099918Y0549469D03*
X0099918Y0552619D03*
X0099918Y0555769D03*
X0099918Y0558918D03*
X0099918Y0562068D03*
X0099918Y0565217D03*
X0099918Y0568367D03*
X0099918Y0571517D03*
X0099918Y0574666D03*
X0099918Y0577816D03*
X0099918Y0580965D03*
X0099918Y0584115D03*
X0099918Y0587265D03*
X0099918Y0590414D03*
X0099918Y0593564D03*
X0099918Y0596713D03*
X0099918Y0599863D03*
X0099918Y0603013D03*
X0099918Y0606162D03*
X0099918Y0609312D03*
X0099918Y0612461D03*
X0099918Y0615611D03*
X0099918Y0618761D03*
X0099918Y0621910D03*
X0099918Y0625060D03*
X0099918Y0628209D03*
X0099918Y0631359D03*
X0099918Y0634509D03*
X0099918Y0637658D03*
X0099918Y0640808D03*
X0099918Y0643957D03*
X0099918Y0647107D03*
X0099918Y0650257D03*
X0099918Y0653406D03*
X0099918Y0656556D03*
X0099918Y0659706D03*
X0141020Y0659706D03*
X0141020Y0656556D03*
X0141020Y0653406D03*
X0141020Y0650257D03*
X0141020Y0647107D03*
X0141020Y0643957D03*
X0141020Y0640808D03*
X0141020Y0637658D03*
X0141020Y0634509D03*
X0141020Y0631359D03*
X0141020Y0628209D03*
X0141020Y0625060D03*
X0141020Y0621910D03*
X0141020Y0618761D03*
X0141020Y0615611D03*
X0141020Y0612461D03*
X0141020Y0609312D03*
X0141020Y0606162D03*
X0141020Y0603013D03*
X0141020Y0599863D03*
X0141020Y0596713D03*
X0141020Y0593564D03*
X0141020Y0590414D03*
X0141020Y0587265D03*
X0141020Y0584115D03*
X0141020Y0580965D03*
X0141020Y0577816D03*
X0141020Y0574666D03*
X0141020Y0571517D03*
X0141020Y0568367D03*
X0141020Y0565217D03*
X0141020Y0562068D03*
X0141020Y0558918D03*
X0141020Y0555769D03*
X0141020Y0552619D03*
X0141020Y0549469D03*
X0141020Y0546320D03*
X0141020Y0543170D03*
X0141020Y0540020D03*
X0141020Y0536871D03*
X0141020Y0533721D03*
X0141020Y0530572D03*
X0141020Y0527422D03*
X0141020Y0524272D03*
X0141020Y0521123D03*
X0141020Y0517973D03*
X0141020Y0514824D03*
X0141020Y0511674D03*
X0141020Y0508524D03*
X0141020Y0505375D03*
X0141020Y0502225D03*
X0141020Y0499076D03*
X0141020Y0495926D03*
X0141020Y0492776D03*
X0141020Y0489627D03*
X0141020Y0486477D03*
X0141020Y0483328D03*
X0141020Y0480178D03*
X0141020Y0477028D03*
X0141020Y0473879D03*
X0141020Y0470729D03*
X0141020Y0467580D03*
X0141020Y0464430D03*
X0141020Y0461280D03*
X0141020Y0458131D03*
X0141020Y0454981D03*
X0141020Y0451831D03*
X0141020Y0448682D03*
X0141020Y0445532D03*
X0141020Y0442383D03*
X0159918Y0442383D03*
X0159918Y0445532D03*
X0159918Y0448682D03*
X0159918Y0451831D03*
X0159918Y0454981D03*
X0159918Y0458131D03*
X0159918Y0461280D03*
X0159918Y0464430D03*
X0159918Y0467580D03*
X0159918Y0470729D03*
X0159918Y0473879D03*
X0159918Y0477028D03*
X0159918Y0480178D03*
X0159918Y0483328D03*
X0159918Y0486477D03*
X0159918Y0489627D03*
X0159918Y0492776D03*
X0159918Y0495926D03*
X0159918Y0499076D03*
X0159918Y0502225D03*
X0159918Y0505375D03*
X0159918Y0508524D03*
X0159918Y0511674D03*
X0159918Y0514824D03*
X0159918Y0517973D03*
X0159918Y0521123D03*
X0159918Y0524272D03*
X0159918Y0527422D03*
X0159918Y0530572D03*
X0159918Y0533721D03*
X0159918Y0536871D03*
X0159918Y0540020D03*
X0159918Y0543170D03*
X0159918Y0546320D03*
X0159918Y0549469D03*
X0159918Y0552619D03*
X0159918Y0555769D03*
X0159918Y0558918D03*
X0159918Y0562068D03*
X0159918Y0565217D03*
X0159918Y0568367D03*
X0159918Y0571517D03*
X0159918Y0574666D03*
X0159918Y0577816D03*
X0159918Y0580965D03*
X0159918Y0584115D03*
X0159918Y0587265D03*
X0159918Y0590414D03*
X0159918Y0593564D03*
X0159918Y0596713D03*
X0159918Y0599863D03*
X0159918Y0603013D03*
X0159918Y0606162D03*
X0159918Y0609312D03*
X0159918Y0612461D03*
X0159918Y0615611D03*
X0159918Y0618761D03*
X0159918Y0621910D03*
X0159918Y0625060D03*
X0159918Y0628209D03*
X0159918Y0631359D03*
X0159918Y0634509D03*
X0159918Y0637658D03*
X0159918Y0640808D03*
X0159918Y0643957D03*
X0159918Y0647107D03*
X0159918Y0650257D03*
X0159918Y0653406D03*
X0159918Y0656556D03*
X0159918Y0659706D03*
M02*
