G75*
%MOIN*%
%OFA0B0*%
%FSLAX25Y25*%
%IPPOS*%
%LPD*%
%AMOC8*
5,1,8,0,0,1.08239X$1,22.5*
%
%ADD10C,0.00000*%
%ADD11R,0.04331X0.03937*%
%ADD12R,0.08000X0.02600*%
%ADD13R,0.03937X0.04331*%
%ADD14R,0.21260X0.24409*%
%ADD15R,0.03937X0.06299*%
%ADD16R,0.04134X0.04252*%
%ADD17R,0.04252X0.04134*%
D10*
X0001800Y0001800D02*
X0001800Y0746548D01*
X0786879Y0746548D01*
X0786879Y0001800D01*
X0001800Y0001800D01*
X0088796Y0432540D02*
X0088798Y0432621D01*
X0088804Y0432703D01*
X0088814Y0432784D01*
X0088828Y0432864D01*
X0088845Y0432943D01*
X0088867Y0433022D01*
X0088892Y0433099D01*
X0088921Y0433176D01*
X0088954Y0433250D01*
X0088991Y0433323D01*
X0089030Y0433394D01*
X0089074Y0433463D01*
X0089120Y0433530D01*
X0089170Y0433594D01*
X0089223Y0433656D01*
X0089279Y0433716D01*
X0089337Y0433772D01*
X0089399Y0433826D01*
X0089463Y0433877D01*
X0089529Y0433924D01*
X0089597Y0433968D01*
X0089668Y0434009D01*
X0089740Y0434046D01*
X0089815Y0434080D01*
X0089890Y0434110D01*
X0089968Y0434136D01*
X0090046Y0434159D01*
X0090125Y0434177D01*
X0090205Y0434192D01*
X0090286Y0434203D01*
X0090367Y0434210D01*
X0090449Y0434213D01*
X0090530Y0434212D01*
X0090611Y0434207D01*
X0090692Y0434198D01*
X0090773Y0434185D01*
X0090853Y0434168D01*
X0090931Y0434148D01*
X0091009Y0434123D01*
X0091086Y0434095D01*
X0091161Y0434063D01*
X0091234Y0434028D01*
X0091305Y0433989D01*
X0091375Y0433946D01*
X0091442Y0433901D01*
X0091508Y0433852D01*
X0091570Y0433800D01*
X0091630Y0433744D01*
X0091687Y0433686D01*
X0091742Y0433626D01*
X0091793Y0433562D01*
X0091841Y0433497D01*
X0091886Y0433429D01*
X0091928Y0433359D01*
X0091966Y0433287D01*
X0092001Y0433213D01*
X0092032Y0433138D01*
X0092059Y0433061D01*
X0092082Y0432983D01*
X0092102Y0432904D01*
X0092118Y0432824D01*
X0092130Y0432743D01*
X0092138Y0432662D01*
X0092142Y0432581D01*
X0092142Y0432499D01*
X0092138Y0432418D01*
X0092130Y0432337D01*
X0092118Y0432256D01*
X0092102Y0432176D01*
X0092082Y0432097D01*
X0092059Y0432019D01*
X0092032Y0431942D01*
X0092001Y0431867D01*
X0091966Y0431793D01*
X0091928Y0431721D01*
X0091886Y0431651D01*
X0091841Y0431583D01*
X0091793Y0431518D01*
X0091742Y0431454D01*
X0091687Y0431394D01*
X0091630Y0431336D01*
X0091570Y0431280D01*
X0091508Y0431228D01*
X0091442Y0431179D01*
X0091375Y0431134D01*
X0091306Y0431091D01*
X0091234Y0431052D01*
X0091161Y0431017D01*
X0091086Y0430985D01*
X0091009Y0430957D01*
X0090931Y0430932D01*
X0090853Y0430912D01*
X0090773Y0430895D01*
X0090692Y0430882D01*
X0090611Y0430873D01*
X0090530Y0430868D01*
X0090449Y0430867D01*
X0090367Y0430870D01*
X0090286Y0430877D01*
X0090205Y0430888D01*
X0090125Y0430903D01*
X0090046Y0430921D01*
X0089968Y0430944D01*
X0089890Y0430970D01*
X0089815Y0431000D01*
X0089740Y0431034D01*
X0089668Y0431071D01*
X0089597Y0431112D01*
X0089529Y0431156D01*
X0089463Y0431203D01*
X0089399Y0431254D01*
X0089337Y0431308D01*
X0089279Y0431364D01*
X0089223Y0431424D01*
X0089170Y0431486D01*
X0089120Y0431550D01*
X0089074Y0431617D01*
X0089030Y0431686D01*
X0088991Y0431757D01*
X0088954Y0431830D01*
X0088921Y0431904D01*
X0088892Y0431981D01*
X0088867Y0432058D01*
X0088845Y0432137D01*
X0088828Y0432216D01*
X0088814Y0432296D01*
X0088804Y0432377D01*
X0088798Y0432459D01*
X0088796Y0432540D01*
X0148796Y0432540D02*
X0148798Y0432621D01*
X0148804Y0432703D01*
X0148814Y0432784D01*
X0148828Y0432864D01*
X0148845Y0432943D01*
X0148867Y0433022D01*
X0148892Y0433099D01*
X0148921Y0433176D01*
X0148954Y0433250D01*
X0148991Y0433323D01*
X0149030Y0433394D01*
X0149074Y0433463D01*
X0149120Y0433530D01*
X0149170Y0433594D01*
X0149223Y0433656D01*
X0149279Y0433716D01*
X0149337Y0433772D01*
X0149399Y0433826D01*
X0149463Y0433877D01*
X0149529Y0433924D01*
X0149597Y0433968D01*
X0149668Y0434009D01*
X0149740Y0434046D01*
X0149815Y0434080D01*
X0149890Y0434110D01*
X0149968Y0434136D01*
X0150046Y0434159D01*
X0150125Y0434177D01*
X0150205Y0434192D01*
X0150286Y0434203D01*
X0150367Y0434210D01*
X0150449Y0434213D01*
X0150530Y0434212D01*
X0150611Y0434207D01*
X0150692Y0434198D01*
X0150773Y0434185D01*
X0150853Y0434168D01*
X0150931Y0434148D01*
X0151009Y0434123D01*
X0151086Y0434095D01*
X0151161Y0434063D01*
X0151234Y0434028D01*
X0151305Y0433989D01*
X0151375Y0433946D01*
X0151442Y0433901D01*
X0151508Y0433852D01*
X0151570Y0433800D01*
X0151630Y0433744D01*
X0151687Y0433686D01*
X0151742Y0433626D01*
X0151793Y0433562D01*
X0151841Y0433497D01*
X0151886Y0433429D01*
X0151928Y0433359D01*
X0151966Y0433287D01*
X0152001Y0433213D01*
X0152032Y0433138D01*
X0152059Y0433061D01*
X0152082Y0432983D01*
X0152102Y0432904D01*
X0152118Y0432824D01*
X0152130Y0432743D01*
X0152138Y0432662D01*
X0152142Y0432581D01*
X0152142Y0432499D01*
X0152138Y0432418D01*
X0152130Y0432337D01*
X0152118Y0432256D01*
X0152102Y0432176D01*
X0152082Y0432097D01*
X0152059Y0432019D01*
X0152032Y0431942D01*
X0152001Y0431867D01*
X0151966Y0431793D01*
X0151928Y0431721D01*
X0151886Y0431651D01*
X0151841Y0431583D01*
X0151793Y0431518D01*
X0151742Y0431454D01*
X0151687Y0431394D01*
X0151630Y0431336D01*
X0151570Y0431280D01*
X0151508Y0431228D01*
X0151442Y0431179D01*
X0151375Y0431134D01*
X0151306Y0431091D01*
X0151234Y0431052D01*
X0151161Y0431017D01*
X0151086Y0430985D01*
X0151009Y0430957D01*
X0150931Y0430932D01*
X0150853Y0430912D01*
X0150773Y0430895D01*
X0150692Y0430882D01*
X0150611Y0430873D01*
X0150530Y0430868D01*
X0150449Y0430867D01*
X0150367Y0430870D01*
X0150286Y0430877D01*
X0150205Y0430888D01*
X0150125Y0430903D01*
X0150046Y0430921D01*
X0149968Y0430944D01*
X0149890Y0430970D01*
X0149815Y0431000D01*
X0149740Y0431034D01*
X0149668Y0431071D01*
X0149597Y0431112D01*
X0149529Y0431156D01*
X0149463Y0431203D01*
X0149399Y0431254D01*
X0149337Y0431308D01*
X0149279Y0431364D01*
X0149223Y0431424D01*
X0149170Y0431486D01*
X0149120Y0431550D01*
X0149074Y0431617D01*
X0149030Y0431686D01*
X0148991Y0431757D01*
X0148954Y0431830D01*
X0148921Y0431904D01*
X0148892Y0431981D01*
X0148867Y0432058D01*
X0148845Y0432137D01*
X0148828Y0432216D01*
X0148814Y0432296D01*
X0148804Y0432377D01*
X0148798Y0432459D01*
X0148796Y0432540D01*
X0148008Y0669548D02*
X0148010Y0669647D01*
X0148016Y0669746D01*
X0148026Y0669845D01*
X0148040Y0669943D01*
X0148058Y0670040D01*
X0148080Y0670137D01*
X0148105Y0670233D01*
X0148135Y0670327D01*
X0148168Y0670421D01*
X0148205Y0670513D01*
X0148246Y0670603D01*
X0148290Y0670692D01*
X0148338Y0670778D01*
X0148389Y0670863D01*
X0148444Y0670946D01*
X0148502Y0671026D01*
X0148563Y0671104D01*
X0148627Y0671180D01*
X0148694Y0671253D01*
X0148764Y0671323D01*
X0148837Y0671390D01*
X0148913Y0671454D01*
X0148991Y0671515D01*
X0149071Y0671573D01*
X0149154Y0671628D01*
X0149238Y0671679D01*
X0149325Y0671727D01*
X0149414Y0671771D01*
X0149504Y0671812D01*
X0149596Y0671849D01*
X0149690Y0671882D01*
X0149784Y0671912D01*
X0149880Y0671937D01*
X0149977Y0671959D01*
X0150074Y0671977D01*
X0150172Y0671991D01*
X0150271Y0672001D01*
X0150370Y0672007D01*
X0150469Y0672009D01*
X0150568Y0672007D01*
X0150667Y0672001D01*
X0150766Y0671991D01*
X0150864Y0671977D01*
X0150961Y0671959D01*
X0151058Y0671937D01*
X0151154Y0671912D01*
X0151248Y0671882D01*
X0151342Y0671849D01*
X0151434Y0671812D01*
X0151524Y0671771D01*
X0151613Y0671727D01*
X0151699Y0671679D01*
X0151784Y0671628D01*
X0151867Y0671573D01*
X0151947Y0671515D01*
X0152025Y0671454D01*
X0152101Y0671390D01*
X0152174Y0671323D01*
X0152244Y0671253D01*
X0152311Y0671180D01*
X0152375Y0671104D01*
X0152436Y0671026D01*
X0152494Y0670946D01*
X0152549Y0670863D01*
X0152600Y0670779D01*
X0152648Y0670692D01*
X0152692Y0670603D01*
X0152733Y0670513D01*
X0152770Y0670421D01*
X0152803Y0670327D01*
X0152833Y0670233D01*
X0152858Y0670137D01*
X0152880Y0670040D01*
X0152898Y0669943D01*
X0152912Y0669845D01*
X0152922Y0669746D01*
X0152928Y0669647D01*
X0152930Y0669548D01*
X0152928Y0669449D01*
X0152922Y0669350D01*
X0152912Y0669251D01*
X0152898Y0669153D01*
X0152880Y0669056D01*
X0152858Y0668959D01*
X0152833Y0668863D01*
X0152803Y0668769D01*
X0152770Y0668675D01*
X0152733Y0668583D01*
X0152692Y0668493D01*
X0152648Y0668404D01*
X0152600Y0668318D01*
X0152549Y0668233D01*
X0152494Y0668150D01*
X0152436Y0668070D01*
X0152375Y0667992D01*
X0152311Y0667916D01*
X0152244Y0667843D01*
X0152174Y0667773D01*
X0152101Y0667706D01*
X0152025Y0667642D01*
X0151947Y0667581D01*
X0151867Y0667523D01*
X0151784Y0667468D01*
X0151700Y0667417D01*
X0151613Y0667369D01*
X0151524Y0667325D01*
X0151434Y0667284D01*
X0151342Y0667247D01*
X0151248Y0667214D01*
X0151154Y0667184D01*
X0151058Y0667159D01*
X0150961Y0667137D01*
X0150864Y0667119D01*
X0150766Y0667105D01*
X0150667Y0667095D01*
X0150568Y0667089D01*
X0150469Y0667087D01*
X0150370Y0667089D01*
X0150271Y0667095D01*
X0150172Y0667105D01*
X0150074Y0667119D01*
X0149977Y0667137D01*
X0149880Y0667159D01*
X0149784Y0667184D01*
X0149690Y0667214D01*
X0149596Y0667247D01*
X0149504Y0667284D01*
X0149414Y0667325D01*
X0149325Y0667369D01*
X0149239Y0667417D01*
X0149154Y0667468D01*
X0149071Y0667523D01*
X0148991Y0667581D01*
X0148913Y0667642D01*
X0148837Y0667706D01*
X0148764Y0667773D01*
X0148694Y0667843D01*
X0148627Y0667916D01*
X0148563Y0667992D01*
X0148502Y0668070D01*
X0148444Y0668150D01*
X0148389Y0668233D01*
X0148338Y0668317D01*
X0148290Y0668404D01*
X0148246Y0668493D01*
X0148205Y0668583D01*
X0148168Y0668675D01*
X0148135Y0668769D01*
X0148105Y0668863D01*
X0148080Y0668959D01*
X0148058Y0669056D01*
X0148040Y0669153D01*
X0148026Y0669251D01*
X0148016Y0669350D01*
X0148010Y0669449D01*
X0148008Y0669548D01*
X0088008Y0669548D02*
X0088010Y0669647D01*
X0088016Y0669746D01*
X0088026Y0669845D01*
X0088040Y0669943D01*
X0088058Y0670040D01*
X0088080Y0670137D01*
X0088105Y0670233D01*
X0088135Y0670327D01*
X0088168Y0670421D01*
X0088205Y0670513D01*
X0088246Y0670603D01*
X0088290Y0670692D01*
X0088338Y0670778D01*
X0088389Y0670863D01*
X0088444Y0670946D01*
X0088502Y0671026D01*
X0088563Y0671104D01*
X0088627Y0671180D01*
X0088694Y0671253D01*
X0088764Y0671323D01*
X0088837Y0671390D01*
X0088913Y0671454D01*
X0088991Y0671515D01*
X0089071Y0671573D01*
X0089154Y0671628D01*
X0089238Y0671679D01*
X0089325Y0671727D01*
X0089414Y0671771D01*
X0089504Y0671812D01*
X0089596Y0671849D01*
X0089690Y0671882D01*
X0089784Y0671912D01*
X0089880Y0671937D01*
X0089977Y0671959D01*
X0090074Y0671977D01*
X0090172Y0671991D01*
X0090271Y0672001D01*
X0090370Y0672007D01*
X0090469Y0672009D01*
X0090568Y0672007D01*
X0090667Y0672001D01*
X0090766Y0671991D01*
X0090864Y0671977D01*
X0090961Y0671959D01*
X0091058Y0671937D01*
X0091154Y0671912D01*
X0091248Y0671882D01*
X0091342Y0671849D01*
X0091434Y0671812D01*
X0091524Y0671771D01*
X0091613Y0671727D01*
X0091699Y0671679D01*
X0091784Y0671628D01*
X0091867Y0671573D01*
X0091947Y0671515D01*
X0092025Y0671454D01*
X0092101Y0671390D01*
X0092174Y0671323D01*
X0092244Y0671253D01*
X0092311Y0671180D01*
X0092375Y0671104D01*
X0092436Y0671026D01*
X0092494Y0670946D01*
X0092549Y0670863D01*
X0092600Y0670779D01*
X0092648Y0670692D01*
X0092692Y0670603D01*
X0092733Y0670513D01*
X0092770Y0670421D01*
X0092803Y0670327D01*
X0092833Y0670233D01*
X0092858Y0670137D01*
X0092880Y0670040D01*
X0092898Y0669943D01*
X0092912Y0669845D01*
X0092922Y0669746D01*
X0092928Y0669647D01*
X0092930Y0669548D01*
X0092928Y0669449D01*
X0092922Y0669350D01*
X0092912Y0669251D01*
X0092898Y0669153D01*
X0092880Y0669056D01*
X0092858Y0668959D01*
X0092833Y0668863D01*
X0092803Y0668769D01*
X0092770Y0668675D01*
X0092733Y0668583D01*
X0092692Y0668493D01*
X0092648Y0668404D01*
X0092600Y0668318D01*
X0092549Y0668233D01*
X0092494Y0668150D01*
X0092436Y0668070D01*
X0092375Y0667992D01*
X0092311Y0667916D01*
X0092244Y0667843D01*
X0092174Y0667773D01*
X0092101Y0667706D01*
X0092025Y0667642D01*
X0091947Y0667581D01*
X0091867Y0667523D01*
X0091784Y0667468D01*
X0091700Y0667417D01*
X0091613Y0667369D01*
X0091524Y0667325D01*
X0091434Y0667284D01*
X0091342Y0667247D01*
X0091248Y0667214D01*
X0091154Y0667184D01*
X0091058Y0667159D01*
X0090961Y0667137D01*
X0090864Y0667119D01*
X0090766Y0667105D01*
X0090667Y0667095D01*
X0090568Y0667089D01*
X0090469Y0667087D01*
X0090370Y0667089D01*
X0090271Y0667095D01*
X0090172Y0667105D01*
X0090074Y0667119D01*
X0089977Y0667137D01*
X0089880Y0667159D01*
X0089784Y0667184D01*
X0089690Y0667214D01*
X0089596Y0667247D01*
X0089504Y0667284D01*
X0089414Y0667325D01*
X0089325Y0667369D01*
X0089239Y0667417D01*
X0089154Y0667468D01*
X0089071Y0667523D01*
X0088991Y0667581D01*
X0088913Y0667642D01*
X0088837Y0667706D01*
X0088764Y0667773D01*
X0088694Y0667843D01*
X0088627Y0667916D01*
X0088563Y0667992D01*
X0088502Y0668070D01*
X0088444Y0668150D01*
X0088389Y0668233D01*
X0088338Y0668317D01*
X0088290Y0668404D01*
X0088246Y0668493D01*
X0088205Y0668583D01*
X0088168Y0668675D01*
X0088135Y0668769D01*
X0088105Y0668863D01*
X0088080Y0668959D01*
X0088058Y0669056D01*
X0088040Y0669153D01*
X0088026Y0669251D01*
X0088016Y0669350D01*
X0088010Y0669449D01*
X0088008Y0669548D01*
D11*
X0301800Y0584146D03*
X0301800Y0577454D03*
X0311800Y0577454D03*
X0311800Y0584146D03*
X0321800Y0584146D03*
X0321800Y0577454D03*
X0386800Y0577454D03*
X0386800Y0584146D03*
X0396800Y0584146D03*
X0396800Y0577454D03*
X0406800Y0577454D03*
X0406800Y0584146D03*
X0471800Y0584146D03*
X0471800Y0577454D03*
X0481800Y0577454D03*
X0481800Y0584146D03*
X0491800Y0584146D03*
X0491800Y0577454D03*
X0551800Y0577454D03*
X0551800Y0584146D03*
X0561800Y0584146D03*
X0561800Y0577454D03*
X0571800Y0577454D03*
X0571800Y0584146D03*
X0636800Y0584146D03*
X0636800Y0577454D03*
X0646800Y0577454D03*
X0646800Y0584146D03*
X0656800Y0584146D03*
X0656800Y0577454D03*
X0721800Y0577454D03*
X0721800Y0584146D03*
X0731800Y0584146D03*
X0731800Y0577454D03*
X0741800Y0577454D03*
X0741800Y0584146D03*
X0741800Y0499146D03*
X0741800Y0492454D03*
X0731800Y0492454D03*
X0731800Y0499146D03*
X0721800Y0499146D03*
X0721800Y0492454D03*
X0656800Y0492454D03*
X0656800Y0499146D03*
X0646800Y0499146D03*
X0646800Y0492454D03*
X0636800Y0492454D03*
X0636800Y0499146D03*
X0576800Y0499146D03*
X0576800Y0492454D03*
X0566800Y0492454D03*
X0566800Y0499146D03*
X0556800Y0499146D03*
X0556800Y0492454D03*
X0491800Y0492454D03*
X0491800Y0499146D03*
X0481800Y0499146D03*
X0481800Y0492454D03*
X0471800Y0492454D03*
X0471800Y0499146D03*
X0406800Y0499146D03*
X0406800Y0492454D03*
X0396800Y0492454D03*
X0396800Y0499146D03*
X0386800Y0499146D03*
X0386800Y0492454D03*
X0321800Y0492454D03*
X0321800Y0499146D03*
X0311800Y0499146D03*
X0311800Y0492454D03*
X0301800Y0492454D03*
X0301800Y0499146D03*
X0301800Y0379146D03*
X0301800Y0372454D03*
X0311800Y0372454D03*
X0311800Y0379146D03*
X0321800Y0379146D03*
X0321800Y0372454D03*
X0321800Y0334146D03*
X0321800Y0327454D03*
X0311800Y0327454D03*
X0311800Y0334146D03*
X0301800Y0334146D03*
X0301800Y0327454D03*
X0386800Y0327454D03*
X0386800Y0334146D03*
X0396800Y0334146D03*
X0396800Y0327454D03*
X0406800Y0327454D03*
X0406800Y0334146D03*
X0406800Y0372454D03*
X0406800Y0379146D03*
X0396800Y0379146D03*
X0396800Y0372454D03*
X0386800Y0372454D03*
X0386800Y0379146D03*
X0471800Y0379146D03*
X0471800Y0372454D03*
X0481800Y0372454D03*
X0481800Y0379146D03*
X0491800Y0379146D03*
X0491800Y0372454D03*
X0491800Y0334146D03*
X0491800Y0327454D03*
X0481800Y0327454D03*
X0481800Y0334146D03*
X0471800Y0334146D03*
X0471800Y0327454D03*
X0556800Y0327454D03*
X0556800Y0334146D03*
X0566800Y0334146D03*
X0566800Y0327454D03*
X0576800Y0327454D03*
X0576800Y0334146D03*
X0556800Y0372454D03*
X0556800Y0379146D03*
X0571800Y0407454D03*
X0571800Y0414146D03*
X0636800Y0414146D03*
X0636800Y0407454D03*
X0646800Y0407454D03*
X0646800Y0414146D03*
X0656800Y0414146D03*
X0656800Y0407454D03*
X0721800Y0407454D03*
X0721800Y0414146D03*
X0731800Y0414146D03*
X0731800Y0407454D03*
X0741800Y0407454D03*
X0741800Y0414146D03*
X0736800Y0334146D03*
X0736800Y0327454D03*
X0726800Y0327454D03*
X0726800Y0334146D03*
X0716800Y0334146D03*
X0716800Y0327454D03*
X0656800Y0327454D03*
X0656800Y0334146D03*
X0646800Y0334146D03*
X0646800Y0327454D03*
X0636800Y0327454D03*
X0636800Y0334146D03*
X0636800Y0249146D03*
X0636800Y0242454D03*
X0646800Y0242454D03*
X0646800Y0249146D03*
X0656800Y0249146D03*
X0656800Y0242454D03*
X0721800Y0242454D03*
X0721800Y0249146D03*
X0731800Y0249146D03*
X0731800Y0242454D03*
X0741800Y0242454D03*
X0741800Y0249146D03*
X0740800Y0126146D03*
X0740800Y0119454D03*
X0730800Y0119454D03*
X0730800Y0126146D03*
X0720800Y0126146D03*
X0720800Y0119454D03*
X0656800Y0119454D03*
X0656800Y0126146D03*
X0646800Y0126146D03*
X0646800Y0119454D03*
X0636800Y0119454D03*
X0636800Y0126146D03*
X0572800Y0126146D03*
X0572800Y0119454D03*
X0562800Y0119454D03*
X0562800Y0126146D03*
X0552800Y0126146D03*
X0552800Y0119454D03*
X0489800Y0119454D03*
X0489800Y0126146D03*
X0479800Y0126146D03*
X0479800Y0119454D03*
X0469800Y0119454D03*
X0469800Y0126146D03*
X0405800Y0126146D03*
X0405800Y0119454D03*
X0395800Y0119454D03*
X0395800Y0126146D03*
X0385800Y0126146D03*
X0385800Y0119454D03*
X0322800Y0119454D03*
X0322800Y0126146D03*
X0312800Y0126146D03*
X0312800Y0119454D03*
X0302800Y0119454D03*
X0302800Y0126146D03*
X0300800Y0202454D03*
X0300800Y0209146D03*
X0310800Y0209146D03*
X0310800Y0202454D03*
X0320800Y0202454D03*
X0320800Y0209146D03*
X0386800Y0209146D03*
X0386800Y0202454D03*
X0396800Y0202454D03*
X0396800Y0209146D03*
X0406800Y0209146D03*
X0406800Y0202454D03*
X0469800Y0202454D03*
X0469800Y0209146D03*
X0479800Y0209146D03*
X0479800Y0202454D03*
X0489800Y0202454D03*
X0489800Y0209146D03*
X0551800Y0242454D03*
X0551800Y0249146D03*
X0561800Y0249146D03*
X0561800Y0242454D03*
X0571800Y0242454D03*
X0571800Y0249146D03*
D12*
X0248100Y0245800D03*
X0248100Y0240800D03*
X0248100Y0235800D03*
X0248100Y0230800D03*
X0248100Y0225800D03*
X0248100Y0220800D03*
X0248100Y0215800D03*
X0248100Y0210800D03*
X0248100Y0205800D03*
X0248100Y0196800D03*
X0248100Y0191800D03*
X0248100Y0186800D03*
X0248100Y0181800D03*
X0248100Y0176800D03*
X0248100Y0171800D03*
X0248100Y0166800D03*
X0248100Y0161800D03*
X0248100Y0156800D03*
X0248100Y0147800D03*
X0248100Y0142800D03*
X0248100Y0137800D03*
X0248100Y0132800D03*
X0248100Y0127800D03*
X0248100Y0122800D03*
X0248100Y0117800D03*
X0248100Y0112800D03*
X0248100Y0107800D03*
X0248100Y0098800D03*
X0248100Y0093800D03*
X0248100Y0088800D03*
X0248100Y0083800D03*
X0248100Y0078800D03*
X0248100Y0073800D03*
X0248100Y0068800D03*
X0248100Y0063800D03*
X0248100Y0058800D03*
X0248100Y0049800D03*
X0248100Y0044800D03*
X0248100Y0039800D03*
X0248100Y0034800D03*
X0248100Y0029800D03*
X0248100Y0024800D03*
X0248100Y0019800D03*
X0248100Y0014800D03*
X0248100Y0009800D03*
X0209500Y0009800D03*
X0209500Y0014800D03*
X0209500Y0019800D03*
X0209500Y0024800D03*
X0209500Y0029800D03*
X0209500Y0034800D03*
X0209500Y0039800D03*
X0209500Y0044800D03*
X0209500Y0049800D03*
X0209500Y0058800D03*
X0209500Y0063800D03*
X0209500Y0068800D03*
X0209500Y0073800D03*
X0209500Y0078800D03*
X0209500Y0083800D03*
X0209500Y0088800D03*
X0209500Y0093800D03*
X0209500Y0098800D03*
X0209500Y0107800D03*
X0209500Y0112800D03*
X0209500Y0117800D03*
X0209500Y0122800D03*
X0209500Y0127800D03*
X0209500Y0132800D03*
X0209500Y0137800D03*
X0209500Y0142800D03*
X0209500Y0147800D03*
X0209500Y0156800D03*
X0209500Y0161800D03*
X0209500Y0166800D03*
X0209500Y0171800D03*
X0209500Y0176800D03*
X0209500Y0181800D03*
X0209500Y0186800D03*
X0209500Y0191800D03*
X0209500Y0196800D03*
X0209500Y0205800D03*
X0209500Y0210800D03*
X0209500Y0215800D03*
X0209500Y0220800D03*
X0209500Y0225800D03*
X0209500Y0230800D03*
X0209500Y0235800D03*
X0209500Y0240800D03*
X0209500Y0245800D03*
X0209500Y0254800D03*
X0209500Y0259800D03*
X0209500Y0264800D03*
X0209500Y0269800D03*
X0209500Y0274800D03*
X0209500Y0279800D03*
X0209500Y0284800D03*
X0209500Y0289800D03*
X0209500Y0294800D03*
X0209500Y0303800D03*
X0209500Y0308800D03*
X0209500Y0313800D03*
X0209500Y0318800D03*
X0209500Y0323800D03*
X0209500Y0328800D03*
X0209500Y0333800D03*
X0209500Y0338800D03*
X0209500Y0343800D03*
X0209500Y0352800D03*
X0209500Y0357800D03*
X0209500Y0362800D03*
X0209500Y0367800D03*
X0209500Y0372800D03*
X0209500Y0377800D03*
X0209500Y0382800D03*
X0209500Y0387800D03*
X0209500Y0392800D03*
X0209500Y0401800D03*
X0209500Y0406800D03*
X0209500Y0411800D03*
X0209500Y0416800D03*
X0209500Y0421800D03*
X0209500Y0426800D03*
X0209500Y0431800D03*
X0209500Y0436800D03*
X0209500Y0441800D03*
X0209500Y0450800D03*
X0209500Y0455800D03*
X0209500Y0460800D03*
X0209500Y0465800D03*
X0209500Y0470800D03*
X0209500Y0475800D03*
X0209500Y0480800D03*
X0209500Y0485800D03*
X0209500Y0490800D03*
X0209500Y0499800D03*
X0209500Y0504800D03*
X0209500Y0509800D03*
X0209500Y0514800D03*
X0209500Y0519800D03*
X0209500Y0524800D03*
X0209500Y0529800D03*
X0209500Y0534800D03*
X0209500Y0539800D03*
X0209500Y0548800D03*
X0209500Y0553800D03*
X0209500Y0558800D03*
X0209500Y0563800D03*
X0209500Y0568800D03*
X0209500Y0573800D03*
X0209500Y0578800D03*
X0209500Y0583800D03*
X0209500Y0588800D03*
X0209500Y0597800D03*
X0209500Y0602800D03*
X0209500Y0607800D03*
X0209500Y0612800D03*
X0209500Y0617800D03*
X0209500Y0622800D03*
X0209500Y0627800D03*
X0209500Y0632800D03*
X0209500Y0637800D03*
X0209500Y0646800D03*
X0209500Y0651800D03*
X0209500Y0656800D03*
X0209500Y0661800D03*
X0209500Y0666800D03*
X0209500Y0671800D03*
X0209500Y0676800D03*
X0209500Y0681800D03*
X0209500Y0686800D03*
X0248100Y0686800D03*
X0248100Y0681800D03*
X0248100Y0676800D03*
X0248100Y0671800D03*
X0248100Y0666800D03*
X0248100Y0661800D03*
X0248100Y0656800D03*
X0248100Y0651800D03*
X0248100Y0646800D03*
X0248100Y0637800D03*
X0248100Y0632800D03*
X0248100Y0627800D03*
X0248100Y0622800D03*
X0248100Y0617800D03*
X0248100Y0612800D03*
X0248100Y0607800D03*
X0248100Y0602800D03*
X0248100Y0597800D03*
X0248100Y0588800D03*
X0248100Y0583800D03*
X0248100Y0578800D03*
X0248100Y0573800D03*
X0248100Y0568800D03*
X0248100Y0563800D03*
X0248100Y0558800D03*
X0248100Y0553800D03*
X0248100Y0548800D03*
X0248100Y0539800D03*
X0248100Y0534800D03*
X0248100Y0529800D03*
X0248100Y0524800D03*
X0248100Y0519800D03*
X0248100Y0514800D03*
X0248100Y0509800D03*
X0248100Y0504800D03*
X0248100Y0499800D03*
X0248100Y0490800D03*
X0248100Y0485800D03*
X0248100Y0480800D03*
X0248100Y0475800D03*
X0248100Y0470800D03*
X0248100Y0465800D03*
X0248100Y0460800D03*
X0248100Y0455800D03*
X0248100Y0450800D03*
X0248100Y0441800D03*
X0248100Y0436800D03*
X0248100Y0431800D03*
X0248100Y0426800D03*
X0248100Y0421800D03*
X0248100Y0416800D03*
X0248100Y0411800D03*
X0248100Y0406800D03*
X0248100Y0401800D03*
X0248100Y0392800D03*
X0248100Y0387800D03*
X0248100Y0382800D03*
X0248100Y0377800D03*
X0248100Y0372800D03*
X0248100Y0367800D03*
X0248100Y0362800D03*
X0248100Y0357800D03*
X0248100Y0352800D03*
X0248100Y0343800D03*
X0248100Y0338800D03*
X0248100Y0333800D03*
X0248100Y0328800D03*
X0248100Y0323800D03*
X0248100Y0318800D03*
X0248100Y0313800D03*
X0248100Y0308800D03*
X0248100Y0303800D03*
X0248100Y0294800D03*
X0248100Y0289800D03*
X0248100Y0284800D03*
X0248100Y0279800D03*
X0248100Y0274800D03*
X0248100Y0269800D03*
X0248100Y0264800D03*
X0248100Y0259800D03*
X0248100Y0254800D03*
X0266606Y0698816D03*
X0266606Y0703816D03*
X0266606Y0708816D03*
X0266606Y0713816D03*
X0266606Y0718816D03*
X0266606Y0723816D03*
X0266606Y0728816D03*
X0290806Y0728816D03*
X0290806Y0723816D03*
X0290806Y0718816D03*
X0290806Y0713816D03*
X0290806Y0708816D03*
X0290806Y0703816D03*
X0290806Y0698816D03*
D13*
X0553454Y0410800D03*
X0560146Y0410800D03*
D14*
X0762186Y0604792D03*
X0688186Y0631792D03*
X0605485Y0647800D03*
X0521485Y0657800D03*
X0439485Y0670800D03*
X0353485Y0681800D03*
D15*
X0344509Y0710540D03*
X0362461Y0710540D03*
X0430509Y0699540D03*
X0448461Y0699540D03*
X0512509Y0686540D03*
X0530461Y0686540D03*
X0596509Y0676540D03*
X0614461Y0676540D03*
X0679209Y0660532D03*
X0697162Y0660532D03*
X0753209Y0633532D03*
X0771162Y0633532D03*
D16*
X0746131Y0642635D03*
X0739241Y0642635D03*
X0739241Y0649635D03*
X0746131Y0649635D03*
G36*
X0731400Y0709405D02*
X0734323Y0712328D01*
X0737328Y0709323D01*
X0734405Y0706400D01*
X0731400Y0709405D01*
G37*
G36*
X0727400Y0713405D02*
X0730323Y0716328D01*
X0733328Y0713323D01*
X0730405Y0710400D01*
X0727400Y0713405D01*
G37*
G36*
X0732272Y0718277D02*
X0735195Y0721200D01*
X0738200Y0718195D01*
X0735277Y0715272D01*
X0732272Y0718277D01*
G37*
G36*
X0736272Y0714277D02*
X0739195Y0717200D01*
X0742200Y0714195D01*
X0739277Y0711272D01*
X0736272Y0714277D01*
G37*
X0671631Y0675635D03*
X0671631Y0669135D03*
X0664741Y0669135D03*
X0664741Y0675635D03*
X0589430Y0685143D03*
X0589430Y0691643D03*
X0582540Y0691643D03*
X0582540Y0685143D03*
X0505430Y0694643D03*
X0498540Y0694643D03*
X0498540Y0701643D03*
X0505430Y0701643D03*
X0421930Y0707643D03*
X0415040Y0707643D03*
X0415040Y0716143D03*
X0421930Y0716143D03*
X0341430Y0718643D03*
X0334540Y0718643D03*
X0334540Y0725643D03*
X0341430Y0725643D03*
X0768355Y0557800D03*
X0775245Y0557800D03*
X0775245Y0550800D03*
X0768355Y0550800D03*
D17*
X0637800Y0718855D03*
X0637800Y0725745D03*
X0630800Y0725745D03*
X0630800Y0718855D03*
X0557800Y0718855D03*
X0557800Y0725745D03*
X0550800Y0725745D03*
X0550800Y0718855D03*
X0474800Y0718855D03*
X0474800Y0725745D03*
X0467800Y0725745D03*
X0467800Y0718855D03*
X0391800Y0718855D03*
X0391800Y0725745D03*
X0384800Y0725745D03*
X0384800Y0718855D03*
X0302800Y0734355D03*
X0296800Y0734355D03*
X0296800Y0741245D03*
X0302800Y0741245D03*
M02*
