G75*
%MOIN*%
%OFA0B0*%
%FSLAX25Y25*%
%IPPOS*%
%LPD*%
%AMOC8*
5,1,8,0,0,1.08239X$1,22.5*
%
%ADD10C,0.00000*%
%ADD11C,0.05378*%
%ADD12C,0.04528*%
%ADD13C,0.06578*%
%ADD14R,0.10236X0.02677*%
%ADD15C,0.03937*%
%ADD16C,0.05512*%
%ADD17C,0.10591*%
%ADD18OC8,0.10591*%
%ADD19OC8,0.06891*%
%ADD20C,0.06891*%
%ADD21OC8,0.03740*%
%ADD22OC8,0.05709*%
%ADD23OC8,0.05315*%
%ADD24OC8,0.04528*%
%ADD25C,0.26181*%
D10*
X0001800Y0001800D02*
X0001800Y0746548D01*
X0786879Y0746548D01*
X0786879Y0001800D01*
X0001800Y0001800D01*
X0088796Y0432540D02*
X0088798Y0432621D01*
X0088804Y0432703D01*
X0088814Y0432784D01*
X0088828Y0432864D01*
X0088845Y0432943D01*
X0088867Y0433022D01*
X0088892Y0433099D01*
X0088921Y0433176D01*
X0088954Y0433250D01*
X0088991Y0433323D01*
X0089030Y0433394D01*
X0089074Y0433463D01*
X0089120Y0433530D01*
X0089170Y0433594D01*
X0089223Y0433656D01*
X0089279Y0433716D01*
X0089337Y0433772D01*
X0089399Y0433826D01*
X0089463Y0433877D01*
X0089529Y0433924D01*
X0089597Y0433968D01*
X0089668Y0434009D01*
X0089740Y0434046D01*
X0089815Y0434080D01*
X0089890Y0434110D01*
X0089968Y0434136D01*
X0090046Y0434159D01*
X0090125Y0434177D01*
X0090205Y0434192D01*
X0090286Y0434203D01*
X0090367Y0434210D01*
X0090449Y0434213D01*
X0090530Y0434212D01*
X0090611Y0434207D01*
X0090692Y0434198D01*
X0090773Y0434185D01*
X0090853Y0434168D01*
X0090931Y0434148D01*
X0091009Y0434123D01*
X0091086Y0434095D01*
X0091161Y0434063D01*
X0091234Y0434028D01*
X0091305Y0433989D01*
X0091375Y0433946D01*
X0091442Y0433901D01*
X0091508Y0433852D01*
X0091570Y0433800D01*
X0091630Y0433744D01*
X0091687Y0433686D01*
X0091742Y0433626D01*
X0091793Y0433562D01*
X0091841Y0433497D01*
X0091886Y0433429D01*
X0091928Y0433359D01*
X0091966Y0433287D01*
X0092001Y0433213D01*
X0092032Y0433138D01*
X0092059Y0433061D01*
X0092082Y0432983D01*
X0092102Y0432904D01*
X0092118Y0432824D01*
X0092130Y0432743D01*
X0092138Y0432662D01*
X0092142Y0432581D01*
X0092142Y0432499D01*
X0092138Y0432418D01*
X0092130Y0432337D01*
X0092118Y0432256D01*
X0092102Y0432176D01*
X0092082Y0432097D01*
X0092059Y0432019D01*
X0092032Y0431942D01*
X0092001Y0431867D01*
X0091966Y0431793D01*
X0091928Y0431721D01*
X0091886Y0431651D01*
X0091841Y0431583D01*
X0091793Y0431518D01*
X0091742Y0431454D01*
X0091687Y0431394D01*
X0091630Y0431336D01*
X0091570Y0431280D01*
X0091508Y0431228D01*
X0091442Y0431179D01*
X0091375Y0431134D01*
X0091306Y0431091D01*
X0091234Y0431052D01*
X0091161Y0431017D01*
X0091086Y0430985D01*
X0091009Y0430957D01*
X0090931Y0430932D01*
X0090853Y0430912D01*
X0090773Y0430895D01*
X0090692Y0430882D01*
X0090611Y0430873D01*
X0090530Y0430868D01*
X0090449Y0430867D01*
X0090367Y0430870D01*
X0090286Y0430877D01*
X0090205Y0430888D01*
X0090125Y0430903D01*
X0090046Y0430921D01*
X0089968Y0430944D01*
X0089890Y0430970D01*
X0089815Y0431000D01*
X0089740Y0431034D01*
X0089668Y0431071D01*
X0089597Y0431112D01*
X0089529Y0431156D01*
X0089463Y0431203D01*
X0089399Y0431254D01*
X0089337Y0431308D01*
X0089279Y0431364D01*
X0089223Y0431424D01*
X0089170Y0431486D01*
X0089120Y0431550D01*
X0089074Y0431617D01*
X0089030Y0431686D01*
X0088991Y0431757D01*
X0088954Y0431830D01*
X0088921Y0431904D01*
X0088892Y0431981D01*
X0088867Y0432058D01*
X0088845Y0432137D01*
X0088828Y0432216D01*
X0088814Y0432296D01*
X0088804Y0432377D01*
X0088798Y0432459D01*
X0088796Y0432540D01*
X0148796Y0432540D02*
X0148798Y0432621D01*
X0148804Y0432703D01*
X0148814Y0432784D01*
X0148828Y0432864D01*
X0148845Y0432943D01*
X0148867Y0433022D01*
X0148892Y0433099D01*
X0148921Y0433176D01*
X0148954Y0433250D01*
X0148991Y0433323D01*
X0149030Y0433394D01*
X0149074Y0433463D01*
X0149120Y0433530D01*
X0149170Y0433594D01*
X0149223Y0433656D01*
X0149279Y0433716D01*
X0149337Y0433772D01*
X0149399Y0433826D01*
X0149463Y0433877D01*
X0149529Y0433924D01*
X0149597Y0433968D01*
X0149668Y0434009D01*
X0149740Y0434046D01*
X0149815Y0434080D01*
X0149890Y0434110D01*
X0149968Y0434136D01*
X0150046Y0434159D01*
X0150125Y0434177D01*
X0150205Y0434192D01*
X0150286Y0434203D01*
X0150367Y0434210D01*
X0150449Y0434213D01*
X0150530Y0434212D01*
X0150611Y0434207D01*
X0150692Y0434198D01*
X0150773Y0434185D01*
X0150853Y0434168D01*
X0150931Y0434148D01*
X0151009Y0434123D01*
X0151086Y0434095D01*
X0151161Y0434063D01*
X0151234Y0434028D01*
X0151305Y0433989D01*
X0151375Y0433946D01*
X0151442Y0433901D01*
X0151508Y0433852D01*
X0151570Y0433800D01*
X0151630Y0433744D01*
X0151687Y0433686D01*
X0151742Y0433626D01*
X0151793Y0433562D01*
X0151841Y0433497D01*
X0151886Y0433429D01*
X0151928Y0433359D01*
X0151966Y0433287D01*
X0152001Y0433213D01*
X0152032Y0433138D01*
X0152059Y0433061D01*
X0152082Y0432983D01*
X0152102Y0432904D01*
X0152118Y0432824D01*
X0152130Y0432743D01*
X0152138Y0432662D01*
X0152142Y0432581D01*
X0152142Y0432499D01*
X0152138Y0432418D01*
X0152130Y0432337D01*
X0152118Y0432256D01*
X0152102Y0432176D01*
X0152082Y0432097D01*
X0152059Y0432019D01*
X0152032Y0431942D01*
X0152001Y0431867D01*
X0151966Y0431793D01*
X0151928Y0431721D01*
X0151886Y0431651D01*
X0151841Y0431583D01*
X0151793Y0431518D01*
X0151742Y0431454D01*
X0151687Y0431394D01*
X0151630Y0431336D01*
X0151570Y0431280D01*
X0151508Y0431228D01*
X0151442Y0431179D01*
X0151375Y0431134D01*
X0151306Y0431091D01*
X0151234Y0431052D01*
X0151161Y0431017D01*
X0151086Y0430985D01*
X0151009Y0430957D01*
X0150931Y0430932D01*
X0150853Y0430912D01*
X0150773Y0430895D01*
X0150692Y0430882D01*
X0150611Y0430873D01*
X0150530Y0430868D01*
X0150449Y0430867D01*
X0150367Y0430870D01*
X0150286Y0430877D01*
X0150205Y0430888D01*
X0150125Y0430903D01*
X0150046Y0430921D01*
X0149968Y0430944D01*
X0149890Y0430970D01*
X0149815Y0431000D01*
X0149740Y0431034D01*
X0149668Y0431071D01*
X0149597Y0431112D01*
X0149529Y0431156D01*
X0149463Y0431203D01*
X0149399Y0431254D01*
X0149337Y0431308D01*
X0149279Y0431364D01*
X0149223Y0431424D01*
X0149170Y0431486D01*
X0149120Y0431550D01*
X0149074Y0431617D01*
X0149030Y0431686D01*
X0148991Y0431757D01*
X0148954Y0431830D01*
X0148921Y0431904D01*
X0148892Y0431981D01*
X0148867Y0432058D01*
X0148845Y0432137D01*
X0148828Y0432216D01*
X0148814Y0432296D01*
X0148804Y0432377D01*
X0148798Y0432459D01*
X0148796Y0432540D01*
X0148008Y0669548D02*
X0148010Y0669647D01*
X0148016Y0669746D01*
X0148026Y0669845D01*
X0148040Y0669943D01*
X0148058Y0670040D01*
X0148080Y0670137D01*
X0148105Y0670233D01*
X0148135Y0670327D01*
X0148168Y0670421D01*
X0148205Y0670513D01*
X0148246Y0670603D01*
X0148290Y0670692D01*
X0148338Y0670778D01*
X0148389Y0670863D01*
X0148444Y0670946D01*
X0148502Y0671026D01*
X0148563Y0671104D01*
X0148627Y0671180D01*
X0148694Y0671253D01*
X0148764Y0671323D01*
X0148837Y0671390D01*
X0148913Y0671454D01*
X0148991Y0671515D01*
X0149071Y0671573D01*
X0149154Y0671628D01*
X0149238Y0671679D01*
X0149325Y0671727D01*
X0149414Y0671771D01*
X0149504Y0671812D01*
X0149596Y0671849D01*
X0149690Y0671882D01*
X0149784Y0671912D01*
X0149880Y0671937D01*
X0149977Y0671959D01*
X0150074Y0671977D01*
X0150172Y0671991D01*
X0150271Y0672001D01*
X0150370Y0672007D01*
X0150469Y0672009D01*
X0150568Y0672007D01*
X0150667Y0672001D01*
X0150766Y0671991D01*
X0150864Y0671977D01*
X0150961Y0671959D01*
X0151058Y0671937D01*
X0151154Y0671912D01*
X0151248Y0671882D01*
X0151342Y0671849D01*
X0151434Y0671812D01*
X0151524Y0671771D01*
X0151613Y0671727D01*
X0151699Y0671679D01*
X0151784Y0671628D01*
X0151867Y0671573D01*
X0151947Y0671515D01*
X0152025Y0671454D01*
X0152101Y0671390D01*
X0152174Y0671323D01*
X0152244Y0671253D01*
X0152311Y0671180D01*
X0152375Y0671104D01*
X0152436Y0671026D01*
X0152494Y0670946D01*
X0152549Y0670863D01*
X0152600Y0670779D01*
X0152648Y0670692D01*
X0152692Y0670603D01*
X0152733Y0670513D01*
X0152770Y0670421D01*
X0152803Y0670327D01*
X0152833Y0670233D01*
X0152858Y0670137D01*
X0152880Y0670040D01*
X0152898Y0669943D01*
X0152912Y0669845D01*
X0152922Y0669746D01*
X0152928Y0669647D01*
X0152930Y0669548D01*
X0152928Y0669449D01*
X0152922Y0669350D01*
X0152912Y0669251D01*
X0152898Y0669153D01*
X0152880Y0669056D01*
X0152858Y0668959D01*
X0152833Y0668863D01*
X0152803Y0668769D01*
X0152770Y0668675D01*
X0152733Y0668583D01*
X0152692Y0668493D01*
X0152648Y0668404D01*
X0152600Y0668318D01*
X0152549Y0668233D01*
X0152494Y0668150D01*
X0152436Y0668070D01*
X0152375Y0667992D01*
X0152311Y0667916D01*
X0152244Y0667843D01*
X0152174Y0667773D01*
X0152101Y0667706D01*
X0152025Y0667642D01*
X0151947Y0667581D01*
X0151867Y0667523D01*
X0151784Y0667468D01*
X0151700Y0667417D01*
X0151613Y0667369D01*
X0151524Y0667325D01*
X0151434Y0667284D01*
X0151342Y0667247D01*
X0151248Y0667214D01*
X0151154Y0667184D01*
X0151058Y0667159D01*
X0150961Y0667137D01*
X0150864Y0667119D01*
X0150766Y0667105D01*
X0150667Y0667095D01*
X0150568Y0667089D01*
X0150469Y0667087D01*
X0150370Y0667089D01*
X0150271Y0667095D01*
X0150172Y0667105D01*
X0150074Y0667119D01*
X0149977Y0667137D01*
X0149880Y0667159D01*
X0149784Y0667184D01*
X0149690Y0667214D01*
X0149596Y0667247D01*
X0149504Y0667284D01*
X0149414Y0667325D01*
X0149325Y0667369D01*
X0149239Y0667417D01*
X0149154Y0667468D01*
X0149071Y0667523D01*
X0148991Y0667581D01*
X0148913Y0667642D01*
X0148837Y0667706D01*
X0148764Y0667773D01*
X0148694Y0667843D01*
X0148627Y0667916D01*
X0148563Y0667992D01*
X0148502Y0668070D01*
X0148444Y0668150D01*
X0148389Y0668233D01*
X0148338Y0668317D01*
X0148290Y0668404D01*
X0148246Y0668493D01*
X0148205Y0668583D01*
X0148168Y0668675D01*
X0148135Y0668769D01*
X0148105Y0668863D01*
X0148080Y0668959D01*
X0148058Y0669056D01*
X0148040Y0669153D01*
X0148026Y0669251D01*
X0148016Y0669350D01*
X0148010Y0669449D01*
X0148008Y0669548D01*
X0088008Y0669548D02*
X0088010Y0669647D01*
X0088016Y0669746D01*
X0088026Y0669845D01*
X0088040Y0669943D01*
X0088058Y0670040D01*
X0088080Y0670137D01*
X0088105Y0670233D01*
X0088135Y0670327D01*
X0088168Y0670421D01*
X0088205Y0670513D01*
X0088246Y0670603D01*
X0088290Y0670692D01*
X0088338Y0670778D01*
X0088389Y0670863D01*
X0088444Y0670946D01*
X0088502Y0671026D01*
X0088563Y0671104D01*
X0088627Y0671180D01*
X0088694Y0671253D01*
X0088764Y0671323D01*
X0088837Y0671390D01*
X0088913Y0671454D01*
X0088991Y0671515D01*
X0089071Y0671573D01*
X0089154Y0671628D01*
X0089238Y0671679D01*
X0089325Y0671727D01*
X0089414Y0671771D01*
X0089504Y0671812D01*
X0089596Y0671849D01*
X0089690Y0671882D01*
X0089784Y0671912D01*
X0089880Y0671937D01*
X0089977Y0671959D01*
X0090074Y0671977D01*
X0090172Y0671991D01*
X0090271Y0672001D01*
X0090370Y0672007D01*
X0090469Y0672009D01*
X0090568Y0672007D01*
X0090667Y0672001D01*
X0090766Y0671991D01*
X0090864Y0671977D01*
X0090961Y0671959D01*
X0091058Y0671937D01*
X0091154Y0671912D01*
X0091248Y0671882D01*
X0091342Y0671849D01*
X0091434Y0671812D01*
X0091524Y0671771D01*
X0091613Y0671727D01*
X0091699Y0671679D01*
X0091784Y0671628D01*
X0091867Y0671573D01*
X0091947Y0671515D01*
X0092025Y0671454D01*
X0092101Y0671390D01*
X0092174Y0671323D01*
X0092244Y0671253D01*
X0092311Y0671180D01*
X0092375Y0671104D01*
X0092436Y0671026D01*
X0092494Y0670946D01*
X0092549Y0670863D01*
X0092600Y0670779D01*
X0092648Y0670692D01*
X0092692Y0670603D01*
X0092733Y0670513D01*
X0092770Y0670421D01*
X0092803Y0670327D01*
X0092833Y0670233D01*
X0092858Y0670137D01*
X0092880Y0670040D01*
X0092898Y0669943D01*
X0092912Y0669845D01*
X0092922Y0669746D01*
X0092928Y0669647D01*
X0092930Y0669548D01*
X0092928Y0669449D01*
X0092922Y0669350D01*
X0092912Y0669251D01*
X0092898Y0669153D01*
X0092880Y0669056D01*
X0092858Y0668959D01*
X0092833Y0668863D01*
X0092803Y0668769D01*
X0092770Y0668675D01*
X0092733Y0668583D01*
X0092692Y0668493D01*
X0092648Y0668404D01*
X0092600Y0668318D01*
X0092549Y0668233D01*
X0092494Y0668150D01*
X0092436Y0668070D01*
X0092375Y0667992D01*
X0092311Y0667916D01*
X0092244Y0667843D01*
X0092174Y0667773D01*
X0092101Y0667706D01*
X0092025Y0667642D01*
X0091947Y0667581D01*
X0091867Y0667523D01*
X0091784Y0667468D01*
X0091700Y0667417D01*
X0091613Y0667369D01*
X0091524Y0667325D01*
X0091434Y0667284D01*
X0091342Y0667247D01*
X0091248Y0667214D01*
X0091154Y0667184D01*
X0091058Y0667159D01*
X0090961Y0667137D01*
X0090864Y0667119D01*
X0090766Y0667105D01*
X0090667Y0667095D01*
X0090568Y0667089D01*
X0090469Y0667087D01*
X0090370Y0667089D01*
X0090271Y0667095D01*
X0090172Y0667105D01*
X0090074Y0667119D01*
X0089977Y0667137D01*
X0089880Y0667159D01*
X0089784Y0667184D01*
X0089690Y0667214D01*
X0089596Y0667247D01*
X0089504Y0667284D01*
X0089414Y0667325D01*
X0089325Y0667369D01*
X0089239Y0667417D01*
X0089154Y0667468D01*
X0089071Y0667523D01*
X0088991Y0667581D01*
X0088913Y0667642D01*
X0088837Y0667706D01*
X0088764Y0667773D01*
X0088694Y0667843D01*
X0088627Y0667916D01*
X0088563Y0667992D01*
X0088502Y0668070D01*
X0088444Y0668150D01*
X0088389Y0668233D01*
X0088338Y0668317D01*
X0088290Y0668404D01*
X0088246Y0668493D01*
X0088205Y0668583D01*
X0088168Y0668675D01*
X0088135Y0668769D01*
X0088105Y0668863D01*
X0088080Y0668959D01*
X0088058Y0669056D01*
X0088040Y0669153D01*
X0088026Y0669251D01*
X0088016Y0669350D01*
X0088010Y0669449D01*
X0088008Y0669548D01*
D11*
X0351249Y0581115D02*
X0356036Y0581115D01*
X0437249Y0581115D02*
X0442036Y0581115D01*
X0519249Y0580115D02*
X0524036Y0580115D01*
X0603249Y0580115D02*
X0608036Y0580115D01*
X0686241Y0580414D02*
X0691028Y0580414D01*
X0760241Y0580414D02*
X0765028Y0580414D01*
D12*
X0738599Y0561824D02*
X0738599Y0557887D01*
X0728599Y0557887D02*
X0728599Y0561824D01*
X0723599Y0561824D02*
X0723599Y0557887D01*
X0655095Y0557887D02*
X0655095Y0561824D01*
X0645095Y0561824D02*
X0645095Y0557887D01*
X0640095Y0557887D02*
X0640095Y0561824D01*
X0571591Y0561824D02*
X0571591Y0557887D01*
X0561591Y0557887D02*
X0561591Y0561824D01*
X0556591Y0561824D02*
X0556591Y0557887D01*
X0488087Y0557887D02*
X0488087Y0561824D01*
X0478087Y0561824D02*
X0478087Y0557887D01*
X0473087Y0557887D02*
X0473087Y0561824D01*
X0404583Y0561824D02*
X0404583Y0557887D01*
X0394583Y0557887D02*
X0394583Y0561824D01*
X0389583Y0561824D02*
X0389583Y0557887D01*
X0321080Y0557887D02*
X0321080Y0561824D01*
X0311080Y0561824D02*
X0311080Y0557887D01*
X0306080Y0557887D02*
X0306080Y0561824D01*
X0306080Y0478320D02*
X0306080Y0474383D01*
X0311080Y0474383D02*
X0311080Y0478320D01*
X0321080Y0478320D02*
X0321080Y0474383D01*
X0389583Y0474383D02*
X0389583Y0478320D01*
X0394583Y0478320D02*
X0394583Y0474383D01*
X0404583Y0474383D02*
X0404583Y0478320D01*
X0473087Y0478320D02*
X0473087Y0474383D01*
X0478087Y0474383D02*
X0478087Y0478320D01*
X0488087Y0478320D02*
X0488087Y0474383D01*
X0556591Y0474383D02*
X0556591Y0478320D01*
X0561591Y0478320D02*
X0561591Y0474383D01*
X0571591Y0474383D02*
X0571591Y0478320D01*
X0640095Y0478320D02*
X0640095Y0474383D01*
X0645095Y0474383D02*
X0645095Y0478320D01*
X0655095Y0478320D02*
X0655095Y0474383D01*
X0723599Y0474383D02*
X0723599Y0478320D01*
X0728599Y0478320D02*
X0728599Y0474383D01*
X0738599Y0474383D02*
X0738599Y0478320D01*
X0738599Y0394816D02*
X0738599Y0390879D01*
X0728599Y0390879D02*
X0728599Y0394816D01*
X0723599Y0394816D02*
X0723599Y0390879D01*
X0655095Y0390879D02*
X0655095Y0394816D01*
X0645095Y0394816D02*
X0645095Y0390879D01*
X0640095Y0390879D02*
X0640095Y0394816D01*
X0571591Y0394816D02*
X0571591Y0390879D01*
X0561591Y0390879D02*
X0561591Y0394816D01*
X0556591Y0394816D02*
X0556591Y0390879D01*
X0488087Y0390879D02*
X0488087Y0394816D01*
X0478087Y0394816D02*
X0478087Y0390879D01*
X0473087Y0390879D02*
X0473087Y0394816D01*
X0404583Y0394816D02*
X0404583Y0390879D01*
X0394583Y0390879D02*
X0394583Y0394816D01*
X0389583Y0394816D02*
X0389583Y0390879D01*
X0321080Y0390879D02*
X0321080Y0394816D01*
X0311080Y0394816D02*
X0311080Y0390879D01*
X0306080Y0390879D02*
X0306080Y0394816D01*
X0306080Y0311312D02*
X0306080Y0307375D01*
X0311080Y0307375D02*
X0311080Y0311312D01*
X0321080Y0311312D02*
X0321080Y0307375D01*
X0389583Y0307375D02*
X0389583Y0311312D01*
X0394583Y0311312D02*
X0394583Y0307375D01*
X0404583Y0307375D02*
X0404583Y0311312D01*
X0473087Y0311312D02*
X0473087Y0307375D01*
X0478087Y0307375D02*
X0478087Y0311312D01*
X0488087Y0311312D02*
X0488087Y0307375D01*
X0556591Y0307375D02*
X0556591Y0311312D01*
X0561591Y0311312D02*
X0561591Y0307375D01*
X0571591Y0307375D02*
X0571591Y0311312D01*
X0640095Y0311312D02*
X0640095Y0307375D01*
X0645095Y0307375D02*
X0645095Y0311312D01*
X0655095Y0311312D02*
X0655095Y0307375D01*
X0723599Y0307375D02*
X0723599Y0311312D01*
X0728599Y0311312D02*
X0728599Y0307375D01*
X0738599Y0307375D02*
X0738599Y0311312D01*
X0738599Y0227808D02*
X0738599Y0223871D01*
X0728599Y0223871D02*
X0728599Y0227808D01*
X0723599Y0227808D02*
X0723599Y0223871D01*
X0655095Y0223871D02*
X0655095Y0227808D01*
X0645095Y0227808D02*
X0645095Y0223871D01*
X0640095Y0223871D02*
X0640095Y0227808D01*
X0571591Y0227808D02*
X0571591Y0223871D01*
X0561591Y0223871D02*
X0561591Y0227808D01*
X0556591Y0227808D02*
X0556591Y0223871D01*
X0488087Y0223871D02*
X0488087Y0227808D01*
X0478087Y0227808D02*
X0478087Y0223871D01*
X0473087Y0223871D02*
X0473087Y0227808D01*
X0404583Y0227808D02*
X0404583Y0223871D01*
X0394583Y0223871D02*
X0394583Y0227808D01*
X0389583Y0227808D02*
X0389583Y0223871D01*
X0321080Y0223871D02*
X0321080Y0227808D01*
X0311080Y0227808D02*
X0311080Y0223871D01*
X0306080Y0223871D02*
X0306080Y0227808D01*
X0306080Y0144304D02*
X0306080Y0140367D01*
X0311080Y0140367D02*
X0311080Y0144304D01*
X0321080Y0144304D02*
X0321080Y0140367D01*
X0389583Y0140367D02*
X0389583Y0144304D01*
X0394583Y0144304D02*
X0394583Y0140367D01*
X0404583Y0140367D02*
X0404583Y0144304D01*
X0473087Y0144304D02*
X0473087Y0140367D01*
X0478087Y0140367D02*
X0478087Y0144304D01*
X0488087Y0144304D02*
X0488087Y0140367D01*
X0556591Y0140367D02*
X0556591Y0144304D01*
X0561591Y0144304D02*
X0561591Y0140367D01*
X0571591Y0140367D02*
X0571591Y0144304D01*
X0640095Y0144304D02*
X0640095Y0140367D01*
X0645095Y0140367D02*
X0645095Y0144304D01*
X0655095Y0144304D02*
X0655095Y0140367D01*
X0723599Y0140367D02*
X0723599Y0144304D01*
X0728599Y0144304D02*
X0728599Y0140367D01*
X0738599Y0140367D02*
X0738599Y0144304D01*
D13*
X0767806Y0350900D02*
X0773794Y0350900D01*
X0773794Y0370700D02*
X0767806Y0370700D01*
D14*
X0159918Y0442383D03*
X0159918Y0445532D03*
X0159918Y0448682D03*
X0159918Y0451831D03*
X0159918Y0454981D03*
X0159918Y0458131D03*
X0159918Y0461280D03*
X0159918Y0464430D03*
X0159918Y0467580D03*
X0159918Y0470729D03*
X0159918Y0473879D03*
X0159918Y0477028D03*
X0159918Y0480178D03*
X0159918Y0483328D03*
X0159918Y0486477D03*
X0159918Y0489627D03*
X0159918Y0492776D03*
X0159918Y0495926D03*
X0159918Y0499076D03*
X0159918Y0502225D03*
X0159918Y0505375D03*
X0159918Y0508524D03*
X0159918Y0511674D03*
X0159918Y0514824D03*
X0159918Y0517973D03*
X0159918Y0521123D03*
X0159918Y0524272D03*
X0159918Y0527422D03*
X0159918Y0530572D03*
X0159918Y0533721D03*
X0159918Y0536871D03*
X0159918Y0540020D03*
X0159918Y0543170D03*
X0159918Y0546320D03*
X0159918Y0549469D03*
X0159918Y0552619D03*
X0159918Y0555769D03*
X0159918Y0558918D03*
X0159918Y0562068D03*
X0159918Y0565217D03*
X0159918Y0568367D03*
X0159918Y0571517D03*
X0159918Y0574666D03*
X0159918Y0577816D03*
X0159918Y0580965D03*
X0159918Y0584115D03*
X0159918Y0587265D03*
X0159918Y0590414D03*
X0159918Y0593564D03*
X0159918Y0596713D03*
X0159918Y0599863D03*
X0159918Y0603013D03*
X0159918Y0606162D03*
X0159918Y0609312D03*
X0159918Y0612461D03*
X0159918Y0615611D03*
X0159918Y0618761D03*
X0159918Y0621910D03*
X0159918Y0625060D03*
X0159918Y0628209D03*
X0159918Y0631359D03*
X0159918Y0634509D03*
X0159918Y0637658D03*
X0159918Y0640808D03*
X0159918Y0643957D03*
X0159918Y0647107D03*
X0159918Y0650257D03*
X0159918Y0653406D03*
X0159918Y0656556D03*
X0159918Y0659706D03*
X0141020Y0659706D03*
X0141020Y0656556D03*
X0141020Y0653406D03*
X0141020Y0650257D03*
X0141020Y0647107D03*
X0141020Y0643957D03*
X0141020Y0640808D03*
X0141020Y0637658D03*
X0141020Y0634509D03*
X0141020Y0631359D03*
X0141020Y0628209D03*
X0141020Y0625060D03*
X0141020Y0621910D03*
X0141020Y0618761D03*
X0141020Y0615611D03*
X0141020Y0612461D03*
X0141020Y0609312D03*
X0141020Y0606162D03*
X0141020Y0603013D03*
X0141020Y0599863D03*
X0141020Y0596713D03*
X0141020Y0593564D03*
X0141020Y0590414D03*
X0141020Y0587265D03*
X0141020Y0584115D03*
X0141020Y0580965D03*
X0141020Y0577816D03*
X0141020Y0574666D03*
X0141020Y0571517D03*
X0141020Y0568367D03*
X0141020Y0565217D03*
X0141020Y0562068D03*
X0141020Y0558918D03*
X0141020Y0555769D03*
X0141020Y0552619D03*
X0141020Y0549469D03*
X0141020Y0546320D03*
X0141020Y0543170D03*
X0141020Y0540020D03*
X0141020Y0536871D03*
X0141020Y0533721D03*
X0141020Y0530572D03*
X0141020Y0527422D03*
X0141020Y0524272D03*
X0141020Y0521123D03*
X0141020Y0517973D03*
X0141020Y0514824D03*
X0141020Y0511674D03*
X0141020Y0508524D03*
X0141020Y0505375D03*
X0141020Y0502225D03*
X0141020Y0499076D03*
X0141020Y0495926D03*
X0141020Y0492776D03*
X0141020Y0489627D03*
X0141020Y0486477D03*
X0141020Y0483328D03*
X0141020Y0480178D03*
X0141020Y0477028D03*
X0141020Y0473879D03*
X0141020Y0470729D03*
X0141020Y0467580D03*
X0141020Y0464430D03*
X0141020Y0461280D03*
X0141020Y0458131D03*
X0141020Y0454981D03*
X0141020Y0451831D03*
X0141020Y0448682D03*
X0141020Y0445532D03*
X0141020Y0442383D03*
X0099918Y0442383D03*
X0099918Y0445532D03*
X0099918Y0448682D03*
X0099918Y0451831D03*
X0099918Y0454981D03*
X0099918Y0458131D03*
X0099918Y0461280D03*
X0099918Y0464430D03*
X0099918Y0467580D03*
X0099918Y0470729D03*
X0099918Y0473879D03*
X0099918Y0477028D03*
X0099918Y0480178D03*
X0099918Y0483328D03*
X0099918Y0486477D03*
X0099918Y0489627D03*
X0099918Y0492776D03*
X0099918Y0495926D03*
X0099918Y0499076D03*
X0099918Y0502225D03*
X0099918Y0505375D03*
X0099918Y0508524D03*
X0099918Y0511674D03*
X0099918Y0514824D03*
X0099918Y0517973D03*
X0099918Y0521123D03*
X0099918Y0524272D03*
X0099918Y0527422D03*
X0099918Y0530572D03*
X0099918Y0533721D03*
X0099918Y0536871D03*
X0099918Y0540020D03*
X0099918Y0543170D03*
X0099918Y0546320D03*
X0099918Y0549469D03*
X0099918Y0552619D03*
X0099918Y0555769D03*
X0099918Y0558918D03*
X0099918Y0562068D03*
X0099918Y0565217D03*
X0099918Y0568367D03*
X0099918Y0571517D03*
X0099918Y0574666D03*
X0099918Y0577816D03*
X0099918Y0580965D03*
X0099918Y0584115D03*
X0099918Y0587265D03*
X0099918Y0590414D03*
X0099918Y0593564D03*
X0099918Y0596713D03*
X0099918Y0599863D03*
X0099918Y0603013D03*
X0099918Y0606162D03*
X0099918Y0609312D03*
X0099918Y0612461D03*
X0099918Y0615611D03*
X0099918Y0618761D03*
X0099918Y0621910D03*
X0099918Y0625060D03*
X0099918Y0628209D03*
X0099918Y0631359D03*
X0099918Y0634509D03*
X0099918Y0637658D03*
X0099918Y0640808D03*
X0099918Y0643957D03*
X0099918Y0647107D03*
X0099918Y0650257D03*
X0099918Y0653406D03*
X0099918Y0656556D03*
X0099918Y0659706D03*
X0081020Y0659706D03*
X0081020Y0656556D03*
X0081020Y0653406D03*
X0081020Y0650257D03*
X0081020Y0647107D03*
X0081020Y0643957D03*
X0081020Y0640808D03*
X0081020Y0637658D03*
X0081020Y0634509D03*
X0081020Y0631359D03*
X0081020Y0628209D03*
X0081020Y0625060D03*
X0081020Y0621910D03*
X0081020Y0618761D03*
X0081020Y0615611D03*
X0081020Y0612461D03*
X0081020Y0609312D03*
X0081020Y0606162D03*
X0081020Y0603013D03*
X0081020Y0599863D03*
X0081020Y0596713D03*
X0081020Y0593564D03*
X0081020Y0590414D03*
X0081020Y0587265D03*
X0081020Y0584115D03*
X0081020Y0580965D03*
X0081020Y0577816D03*
X0081020Y0574666D03*
X0081020Y0571517D03*
X0081020Y0568367D03*
X0081020Y0565217D03*
X0081020Y0562068D03*
X0081020Y0558918D03*
X0081020Y0555769D03*
X0081020Y0552619D03*
X0081020Y0549469D03*
X0081020Y0546320D03*
X0081020Y0543170D03*
X0081020Y0540020D03*
X0081020Y0536871D03*
X0081020Y0533721D03*
X0081020Y0530572D03*
X0081020Y0527422D03*
X0081020Y0524272D03*
X0081020Y0521123D03*
X0081020Y0517973D03*
X0081020Y0514824D03*
X0081020Y0511674D03*
X0081020Y0508524D03*
X0081020Y0505375D03*
X0081020Y0502225D03*
X0081020Y0499076D03*
X0081020Y0495926D03*
X0081020Y0492776D03*
X0081020Y0489627D03*
X0081020Y0486477D03*
X0081020Y0483328D03*
X0081020Y0480178D03*
X0081020Y0477028D03*
X0081020Y0473879D03*
X0081020Y0470729D03*
X0081020Y0467580D03*
X0081020Y0464430D03*
X0081020Y0461280D03*
X0081020Y0458131D03*
X0081020Y0454981D03*
X0081020Y0451831D03*
X0081020Y0448682D03*
X0081020Y0445532D03*
X0081020Y0442383D03*
D15*
X0090469Y0432540D03*
X0150469Y0432540D03*
D16*
X0150469Y0669548D03*
X0090469Y0669548D03*
D17*
X0742800Y0690800D03*
D18*
X0742800Y0670800D03*
D19*
X0704800Y0700800D03*
D20*
X0704800Y0714800D03*
D21*
X0725800Y0704800D03*
X0730800Y0645800D03*
X0656800Y0641800D03*
X0650800Y0641800D03*
X0644800Y0641800D03*
X0654300Y0671800D03*
X0621800Y0722800D03*
X0567800Y0676800D03*
X0567800Y0652800D03*
X0573800Y0652800D03*
X0561800Y0652800D03*
X0490800Y0660800D03*
X0484800Y0660800D03*
X0478800Y0660800D03*
X0484800Y0676800D03*
X0470800Y0706800D03*
X0458800Y0722800D03*
X0412800Y0682800D03*
X0404800Y0675800D03*
X0398800Y0675800D03*
X0392800Y0675800D03*
X0396800Y0570800D03*
X0386800Y0570800D03*
X0406800Y0570800D03*
X0406800Y0545800D03*
X0396800Y0540800D03*
X0386800Y0535800D03*
X0386800Y0485800D03*
X0396800Y0485800D03*
X0406800Y0485800D03*
X0471800Y0485800D03*
X0481800Y0485800D03*
X0491800Y0485800D03*
X0471800Y0520800D03*
X0481800Y0525800D03*
X0491800Y0530800D03*
X0491800Y0570800D03*
X0481800Y0570800D03*
X0471800Y0570800D03*
X0448800Y0545800D03*
X0442800Y0545800D03*
X0436800Y0545800D03*
X0551800Y0570800D03*
X0561800Y0570800D03*
X0571800Y0570800D03*
X0600800Y0545800D03*
X0606800Y0545800D03*
X0612800Y0545800D03*
X0636800Y0570800D03*
X0646800Y0570800D03*
X0656800Y0570800D03*
X0688800Y0545800D03*
X0694800Y0545800D03*
X0700800Y0545800D03*
X0721800Y0570800D03*
X0731800Y0570800D03*
X0741800Y0570800D03*
X0741800Y0485800D03*
X0731800Y0485800D03*
X0721800Y0485800D03*
X0656800Y0486800D03*
X0646800Y0486800D03*
X0636800Y0486800D03*
X0636800Y0515800D03*
X0646800Y0520800D03*
X0656800Y0525800D03*
X0576800Y0515800D03*
X0566800Y0510800D03*
X0556800Y0505800D03*
X0556800Y0486800D03*
X0566800Y0486800D03*
X0576800Y0486800D03*
X0561800Y0404800D03*
X0571800Y0401800D03*
X0556800Y0383800D03*
X0524800Y0359800D03*
X0518800Y0359800D03*
X0512800Y0359800D03*
X0491800Y0365800D03*
X0481800Y0365800D03*
X0471800Y0365800D03*
X0471800Y0383800D03*
X0481800Y0383800D03*
X0491800Y0383800D03*
X0491800Y0340800D03*
X0481800Y0340800D03*
X0471800Y0340800D03*
X0471800Y0320800D03*
X0481800Y0320800D03*
X0491800Y0320800D03*
X0556800Y0321800D03*
X0566800Y0321800D03*
X0576800Y0321800D03*
X0576800Y0341800D03*
X0566800Y0341800D03*
X0556800Y0341800D03*
X0636800Y0342800D03*
X0646800Y0342800D03*
X0656800Y0342800D03*
X0656800Y0320800D03*
X0646800Y0320800D03*
X0636800Y0320800D03*
X0716800Y0320800D03*
X0726800Y0320800D03*
X0736800Y0320800D03*
X0736800Y0342800D03*
X0726800Y0342800D03*
X0716800Y0342800D03*
X0721800Y0401800D03*
X0731800Y0401800D03*
X0741800Y0401800D03*
X0656800Y0401800D03*
X0646800Y0401800D03*
X0636800Y0401800D03*
X0636800Y0236800D03*
X0646800Y0236800D03*
X0656800Y0236800D03*
X0681800Y0181800D03*
X0687800Y0181800D03*
X0693800Y0181800D03*
X0720800Y0131800D03*
X0730800Y0131800D03*
X0740800Y0131800D03*
X0730800Y0112800D03*
X0730800Y0102800D03*
X0720800Y0097800D03*
X0720800Y0112800D03*
X0656800Y0131800D03*
X0646800Y0131800D03*
X0636800Y0131800D03*
X0636800Y0113800D03*
X0646800Y0113800D03*
X0646800Y0103800D03*
X0636800Y0099800D03*
X0572800Y0131800D03*
X0562800Y0131800D03*
X0552800Y0131800D03*
X0552800Y0112800D03*
X0562800Y0112800D03*
X0562800Y0103800D03*
X0552800Y0099800D03*
X0489800Y0131800D03*
X0479800Y0131800D03*
X0469800Y0131800D03*
X0469800Y0112800D03*
X0479800Y0112800D03*
X0479800Y0103800D03*
X0469800Y0099800D03*
X0405800Y0130800D03*
X0395800Y0130800D03*
X0385800Y0130800D03*
X0385800Y0112800D03*
X0385800Y0099800D03*
X0395800Y0103800D03*
X0395800Y0112800D03*
X0386800Y0168800D03*
X0396800Y0172800D03*
X0406800Y0193800D03*
X0406800Y0214800D03*
X0396800Y0214800D03*
X0386800Y0214800D03*
X0320800Y0214800D03*
X0310800Y0214800D03*
X0300800Y0214800D03*
X0310800Y0190800D03*
X0320800Y0196800D03*
X0281800Y0196800D03*
X0281800Y0190800D03*
X0261800Y0191800D03*
X0261800Y0186800D03*
X0261800Y0181800D03*
X0261800Y0176800D03*
X0261800Y0171800D03*
X0261800Y0166800D03*
X0302800Y0130800D03*
X0312800Y0130800D03*
X0322800Y0130800D03*
X0293800Y0119800D03*
X0261800Y0127800D03*
X0202800Y0108800D03*
X0202800Y0157800D03*
X0202800Y0206800D03*
X0202800Y0255800D03*
X0164800Y0291800D03*
X0139800Y0267800D03*
X0115800Y0242800D03*
X0090800Y0218800D03*
X0066800Y0193800D03*
X0066022Y0086750D03*
X0070264Y0082507D03*
X0074507Y0078264D03*
X0202800Y0059800D03*
X0201800Y0020800D03*
X0336800Y0026800D03*
X0342800Y0026800D03*
X0348800Y0026800D03*
X0521800Y0032800D03*
X0527800Y0032800D03*
X0533800Y0032800D03*
X0534800Y0179800D03*
X0528800Y0179800D03*
X0522800Y0179800D03*
X0489800Y0193800D03*
X0479800Y0193800D03*
X0469800Y0193800D03*
X0469800Y0214800D03*
X0479800Y0214800D03*
X0489800Y0214800D03*
X0551800Y0236800D03*
X0561800Y0236800D03*
X0571800Y0236800D03*
X0721800Y0235800D03*
X0731800Y0235800D03*
X0741800Y0235800D03*
X0696800Y0034800D03*
X0690800Y0034800D03*
X0684800Y0034800D03*
X0406800Y0320800D03*
X0396800Y0320800D03*
X0386800Y0320800D03*
X0378800Y0318800D03*
X0386800Y0340800D03*
X0396800Y0340800D03*
X0406800Y0340800D03*
X0386800Y0365800D03*
X0386800Y0384800D03*
X0396800Y0384800D03*
X0406800Y0384800D03*
X0354800Y0363800D03*
X0348800Y0363800D03*
X0342800Y0363800D03*
X0321800Y0366800D03*
X0311800Y0366800D03*
X0311800Y0384800D03*
X0301800Y0384800D03*
X0321800Y0384800D03*
X0281800Y0349800D03*
X0275800Y0349800D03*
X0269800Y0349800D03*
X0261800Y0338800D03*
X0261800Y0333800D03*
X0261800Y0328800D03*
X0261800Y0323800D03*
X0261800Y0318800D03*
X0261800Y0313800D03*
X0261800Y0308800D03*
X0261800Y0294800D03*
X0261800Y0289800D03*
X0261800Y0284800D03*
X0261800Y0279800D03*
X0261800Y0274800D03*
X0261800Y0269800D03*
X0261800Y0264800D03*
X0261800Y0259800D03*
X0301800Y0318800D03*
X0311800Y0318800D03*
X0321800Y0318800D03*
X0354800Y0312800D03*
X0261800Y0372800D03*
X0261800Y0377800D03*
X0261800Y0382800D03*
X0261800Y0398800D03*
X0261800Y0406800D03*
X0261800Y0411800D03*
X0261800Y0416800D03*
X0261800Y0448800D03*
X0261800Y0490800D03*
X0252800Y0495800D03*
X0261800Y0504800D03*
X0261800Y0509800D03*
X0261800Y0514800D03*
X0261800Y0519800D03*
X0261800Y0524800D03*
X0261800Y0529800D03*
X0261800Y0534800D03*
X0261800Y0539800D03*
X0261800Y0546800D03*
X0266800Y0546800D03*
X0261800Y0553800D03*
X0261800Y0558800D03*
X0261800Y0563800D03*
X0238800Y0595800D03*
X0202800Y0588800D03*
X0202800Y0583800D03*
X0202800Y0578800D03*
X0202800Y0573800D03*
X0202800Y0568800D03*
X0202800Y0563800D03*
X0202800Y0558800D03*
X0202800Y0553800D03*
X0201800Y0548800D03*
X0202800Y0539800D03*
X0202800Y0534800D03*
X0202800Y0529800D03*
X0202800Y0524800D03*
X0202800Y0519800D03*
X0202800Y0514800D03*
X0202800Y0509800D03*
X0202800Y0504800D03*
X0201800Y0499800D03*
X0202800Y0490800D03*
X0202800Y0485800D03*
X0202800Y0480800D03*
X0202800Y0475800D03*
X0202800Y0470800D03*
X0202800Y0465800D03*
X0202800Y0460800D03*
X0202800Y0455800D03*
X0201800Y0450800D03*
X0202800Y0441800D03*
X0202800Y0436800D03*
X0202800Y0431800D03*
X0202800Y0426800D03*
X0202800Y0421800D03*
X0202800Y0416800D03*
X0202800Y0411800D03*
X0202800Y0406800D03*
X0202800Y0392800D03*
X0202800Y0387800D03*
X0202800Y0382800D03*
X0202800Y0377800D03*
X0202800Y0372800D03*
X0202800Y0367800D03*
X0202800Y0362800D03*
X0202800Y0357800D03*
X0200800Y0352800D03*
X0152800Y0352800D03*
X0152800Y0346800D03*
X0152800Y0340800D03*
X0152800Y0358800D03*
X0152800Y0364800D03*
X0152800Y0370800D03*
X0152800Y0376800D03*
X0092800Y0377800D03*
X0092800Y0371800D03*
X0092800Y0365800D03*
X0092800Y0359800D03*
X0092800Y0353800D03*
X0092800Y0347800D03*
X0092800Y0341800D03*
X0092800Y0383800D03*
X0092800Y0389800D03*
X0092800Y0395800D03*
X0092800Y0401800D03*
X0016800Y0403800D03*
X0016800Y0408800D03*
X0016800Y0413800D03*
X0016800Y0418800D03*
X0016800Y0423800D03*
X0016800Y0428800D03*
X0016800Y0433800D03*
X0016800Y0438800D03*
X0016800Y0443800D03*
X0016800Y0448800D03*
X0016800Y0453800D03*
X0016800Y0458800D03*
X0016800Y0463800D03*
X0016800Y0468800D03*
X0016800Y0473800D03*
X0016800Y0478800D03*
X0016800Y0483800D03*
X0016800Y0488800D03*
X0016800Y0493800D03*
X0016800Y0498800D03*
X0016800Y0503800D03*
X0016800Y0508800D03*
X0016800Y0513800D03*
X0016800Y0518800D03*
X0016800Y0523800D03*
X0016800Y0528800D03*
X0016800Y0533800D03*
X0016800Y0538800D03*
X0016800Y0543800D03*
X0016800Y0548800D03*
X0016800Y0553800D03*
X0016800Y0558800D03*
X0016800Y0563800D03*
X0016800Y0568800D03*
X0016800Y0573800D03*
X0016800Y0578800D03*
X0016800Y0583800D03*
X0016800Y0588800D03*
X0016800Y0593800D03*
X0016800Y0598800D03*
X0016800Y0603800D03*
X0016800Y0608800D03*
X0016800Y0613800D03*
X0016800Y0618800D03*
X0016800Y0623800D03*
X0016800Y0628693D03*
X0016800Y0633800D03*
X0016800Y0638800D03*
X0016800Y0643800D03*
X0016800Y0648800D03*
X0016800Y0653800D03*
X0016800Y0658800D03*
X0049800Y0704800D03*
X0055800Y0704800D03*
X0061800Y0704800D03*
X0120800Y0700800D03*
X0126800Y0700800D03*
X0132800Y0700800D03*
X0130800Y0659800D03*
X0130800Y0654800D03*
X0130800Y0649800D03*
X0130800Y0644800D03*
X0130800Y0639800D03*
X0130800Y0634800D03*
X0130800Y0629800D03*
X0130800Y0624800D03*
X0130800Y0619800D03*
X0130800Y0614800D03*
X0130800Y0609800D03*
X0130800Y0604800D03*
X0130800Y0599800D03*
X0130800Y0594800D03*
X0130800Y0589800D03*
X0130800Y0584800D03*
X0130800Y0579800D03*
X0130800Y0574800D03*
X0130800Y0569800D03*
X0130800Y0564800D03*
X0130800Y0559800D03*
X0130800Y0554800D03*
X0110800Y0579800D03*
X0110800Y0584800D03*
X0110800Y0589800D03*
X0110800Y0594800D03*
X0110800Y0599800D03*
X0110800Y0604800D03*
X0110800Y0609800D03*
X0110800Y0614800D03*
X0110800Y0619800D03*
X0110800Y0624800D03*
X0110800Y0629800D03*
X0110800Y0634800D03*
X0121800Y0598800D03*
X0121800Y0592800D03*
X0121800Y0586800D03*
X0197800Y0595800D03*
X0202800Y0602800D03*
X0202800Y0607800D03*
X0202800Y0612800D03*
X0202800Y0617800D03*
X0202800Y0622800D03*
X0202800Y0627800D03*
X0202800Y0632800D03*
X0202800Y0637800D03*
X0202800Y0642800D03*
X0202800Y0651800D03*
X0202800Y0656800D03*
X0202800Y0661800D03*
X0202800Y0666800D03*
X0202800Y0671800D03*
X0202800Y0676800D03*
X0202800Y0681800D03*
X0202800Y0686800D03*
X0228800Y0692800D03*
X0228800Y0698800D03*
X0228800Y0704800D03*
X0228800Y0710800D03*
X0278800Y0692800D03*
X0278800Y0734800D03*
X0301800Y0570800D03*
X0311800Y0570800D03*
X0321800Y0570800D03*
X0321800Y0485800D03*
X0311800Y0485800D03*
X0301800Y0485800D03*
X0202800Y0304800D03*
X0541800Y0722800D03*
D22*
X0521800Y0638800D03*
X0605485Y0628115D03*
X0688800Y0612800D03*
X0762800Y0588800D03*
X0439800Y0650800D03*
X0352800Y0662800D03*
D23*
X0687800Y0708800D03*
X0704785Y0731800D03*
X0757813Y0705787D03*
X0780800Y0557800D03*
X0780800Y0550800D03*
D24*
X0770800Y0645800D03*
X0696800Y0671800D03*
X0613800Y0684800D03*
X0529800Y0692800D03*
X0448800Y0707800D03*
X0362800Y0719800D03*
X0330800Y0678800D03*
X0324800Y0678800D03*
X0318800Y0678800D03*
X0310800Y0698800D03*
X0310800Y0708800D03*
X0310800Y0718800D03*
X0255800Y0713800D03*
X0255800Y0723800D03*
X0255800Y0703800D03*
D25*
X0021800Y0726800D03*
X0021800Y0021800D03*
X0766800Y0021800D03*
X0766800Y0725800D03*
M02*
