%
M48
M72
T01C0.01969
T02C0.03150
T03C0.03200
T04C0.03346
T05C0.04000
T06C0.04921
T07C0.05200
T08C0.12598
%
T01
X49800Y704800
X55800Y704800
X61800Y704800
X120800Y700800
X126800Y700800
X132800Y700800
X130800Y659800
X130800Y654800
X130800Y649800
X130800Y644800
X130800Y639800
X130800Y634800
X130800Y629800
X130800Y624800
X130800Y619800
X130800Y614800
X130800Y609800
X130800Y604800
X130800Y599800
X130800Y594800
X130800Y589800
X130800Y584800
X130800Y579800
X130800Y574800
X130800Y569800
X130800Y564800
X130800Y559800
X130800Y554800
X110800Y579800
X110800Y584800
X110800Y589800
X110800Y594800
X110800Y599800
X110800Y604800
X110800Y609800
X110800Y614800
X110800Y619800
X110800Y624800
X110800Y629800
X110800Y634800
X121800Y598800
X121800Y592800
X121800Y586800
X197800Y595800
X202800Y588800
X202800Y583800
X202800Y578800
X202800Y573800
X202800Y568800
X202800Y563800
X202800Y558800
X202800Y553800
X201800Y548800
X202800Y539800
X202800Y534800
X202800Y529800
X202800Y524800
X202800Y519800
X202800Y514800
X202800Y509800
X202800Y504800
X201800Y499800
X202800Y490800
X202800Y485800
X202800Y480800
X202800Y475800
X202800Y470800
X202800Y465800
X202800Y460800
X202800Y455800
X201800Y450800
X202800Y441800
X202800Y436800
X202800Y431800
X202800Y426800
X202800Y421800
X202800Y416800
X202800Y411800
X202800Y406800
X202800Y392800
X202800Y387800
X202800Y382800
X202800Y377800
X202800Y372800
X202800Y367800
X202800Y362800
X202800Y357800
X200800Y352800
X152800Y352800
X152800Y346800
X152800Y340800
X152800Y358800
X152800Y364800
X152800Y370800
X152800Y376800
X92800Y401800
X92800Y395800
X92800Y389800
X92800Y383800
X92800Y377800
X92800Y371800
X92800Y365800
X92800Y359800
X92800Y353800
X92800Y347800
X92800Y341800
X164800Y291800
X139800Y267800
X115800Y242800
X90800Y218800
X66800Y193800
X66022Y86750
X70264Y82507
X74507Y78264
X202800Y59800
X201800Y20800
X202800Y108800
X202800Y157800
X202800Y206800
X202800Y255800
X202800Y304800
X261800Y308800
X261800Y313800
X261800Y318800
X261800Y323800
X261800Y328800
X261800Y333800
X261800Y338800
X269800Y349800
X275800Y349800
X281800Y349800
X261800Y372800
X261800Y377800
X261800Y382800
X261800Y398800
X261800Y406800
X261800Y411800
X261800Y416800
X261800Y448800
X261800Y490800
X252800Y495800
X261800Y504800
X261800Y509800
X261800Y514800
X261800Y519800
X261800Y524800
X261800Y529800
X261800Y534800
X261800Y539800
X261800Y546800
X266800Y546800
X261800Y553800
X261800Y558800
X261800Y563800
X238800Y595800
X202800Y602800
X202800Y607800
X202800Y612800
X202800Y617800
X202800Y622800
X202800Y627800
X202800Y632800
X202800Y637800
X202800Y642800
X202800Y651800
X202800Y656800
X202800Y661800
X202800Y666800
X202800Y671800
X202800Y676800
X202800Y681800
X202800Y686800
X228800Y692800
X228800Y698800
X228800Y704800
X228800Y710800
X255800Y713800
X255800Y723800
X255800Y703800
X278800Y692800
X310800Y698800
X310800Y708800
X310800Y718800
X278800Y734800
X318800Y678800
X324800Y678800
X330800Y678800
X352800Y662800
X392800Y675800
X398800Y675800
X404800Y675800
X412800Y682800
X448800Y707800
X458800Y722800
X470800Y706800
X484800Y676800
X484800Y660800
X478800Y660800
X490800Y660800
X521800Y638800
X561800Y652800
X567800Y652800
X573800Y652800
X567800Y676800
X529800Y692800
X541800Y722800
X613800Y684800
X621800Y722800
X654300Y671800
X656800Y641800
X650800Y641800
X644800Y641800
X605485Y628115
X636800Y570800
X646800Y570800
X656800Y570800
X688800Y545800
X694800Y545800
X700800Y545800
X721800Y570800
X731800Y570800
X741800Y570800
X762800Y588800
X780800Y557800
X780800Y550800
X741800Y485800
X731800Y485800
X721800Y485800
X656800Y486800
X646800Y486800
X636800Y486800
X636800Y515800
X646800Y520800
X656800Y525800
X612800Y545800
X606800Y545800
X600800Y545800
X571800Y570800
X561800Y570800
X551800Y570800
X491800Y570800
X481800Y570800
X471800Y570800
X448800Y545800
X442800Y545800
X436800Y545800
X406800Y545800
X396800Y540800
X386800Y535800
X386800Y570800
X396800Y570800
X406800Y570800
X471800Y520800
X481800Y525800
X491800Y530800
X491800Y485800
X481800Y485800
X471800Y485800
X406800Y485800
X396800Y485800
X386800Y485800
X321800Y485800
X311800Y485800
X301800Y485800
X301800Y570800
X311800Y570800
X321800Y570800
X439800Y650800
X362800Y719800
X576800Y515800
X566800Y510800
X556800Y505800
X556800Y486800
X566800Y486800
X576800Y486800
X561800Y404800
X571800Y401800
X556800Y383800
X524800Y359800
X518800Y359800
X512800Y359800
X491800Y365800
X481800Y365800
X471800Y365800
X471800Y383800
X481800Y383800
X491800Y383800
X491800Y340800
X481800Y340800
X471800Y340800
X471800Y320800
X481800Y320800
X491800Y320800
X556800Y321800
X566800Y321800
X576800Y321800
X576800Y341800
X566800Y341800
X556800Y341800
X636800Y342800
X646800Y342800
X656800Y342800
X656800Y320800
X646800Y320800
X636800Y320800
X716800Y320800
X726800Y320800
X736800Y320800
X736800Y342800
X726800Y342800
X716800Y342800
X721800Y401800
X731800Y401800
X741800Y401800
X656800Y401800
X646800Y401800
X636800Y401800
X636800Y236800
X646800Y236800
X656800Y236800
X681800Y181800
X687800Y181800
X693800Y181800
X720800Y131800
X730800Y131800
X740800Y131800
X730800Y112800
X730800Y102800
X720800Y97800
X720800Y112800
X656800Y131800
X646800Y131800
X636800Y131800
X636800Y113800
X646800Y113800
X646800Y103800
X636800Y99800
X572800Y131800
X562800Y131800
X552800Y131800
X552800Y112800
X562800Y112800
X562800Y103800
X552800Y99800
X489800Y131800
X479800Y131800
X469800Y131800
X469800Y112800
X479800Y112800
X479800Y103800
X469800Y99800
X405800Y130800
X395800Y130800
X385800Y130800
X385800Y112800
X385800Y99800
X395800Y103800
X395800Y112800
X386800Y168800
X396800Y172800
X406800Y193800
X406800Y214800
X396800Y214800
X386800Y214800
X320800Y214800
X310800Y214800
X300800Y214800
X310800Y190800
X320800Y196800
X281800Y196800
X281800Y190800
X261800Y191800
X261800Y186800
X261800Y181800
X261800Y176800
X261800Y171800
X261800Y166800
X302800Y130800
X312800Y130800
X322800Y130800
X293800Y119800
X261800Y127800
X336800Y26800
X342800Y26800
X348800Y26800
X521800Y32800
X527800Y32800
X533800Y32800
X534800Y179800
X528800Y179800
X522800Y179800
X489800Y193800
X479800Y193800
X469800Y193800
X469800Y214800
X479800Y214800
X489800Y214800
X551800Y236800
X561800Y236800
X571800Y236800
X721800Y235800
X731800Y235800
X741800Y235800
X696800Y34800
X690800Y34800
X684800Y34800
X406800Y320800
X396800Y320800
X386800Y320800
X378800Y318800
X386800Y340800
X396800Y340800
X406800Y340800
X386800Y365800
X386800Y384800
X396800Y384800
X406800Y384800
X354800Y363800
X348800Y363800
X342800Y363800
X321800Y366800
X311800Y366800
X311800Y384800
X301800Y384800
X321800Y384800
X321800Y318800
X311800Y318800
X301800Y318800
X261800Y294800
X261800Y289800
X261800Y284800
X261800Y279800
X261800Y274800
X261800Y269800
X261800Y264800
X261800Y259800
X354800Y312800
X16800Y403800
X16800Y408800
X16800Y413800
X16800Y418800
X16800Y423800
X16800Y428800
X16800Y433800
X16800Y438800
X16800Y443800
X16800Y448800
X16800Y453800
X16800Y458800
X16800Y463800
X16800Y468800
X16800Y473800
X16800Y478800
X16800Y483800
X16800Y488800
X16800Y493800
X16800Y498800
X16800Y503800
X16800Y508800
X16800Y513800
X16800Y518800
X16800Y523800
X16800Y528800
X16800Y533800
X16800Y538800
X16800Y543800
X16800Y548800
X16800Y553800
X16800Y558800
X16800Y563800
X16800Y568800
X16800Y573800
X16800Y578800
X16800Y583800
X16800Y588800
X16800Y593800
X16800Y598800
X16800Y603800
X16800Y608800
X16800Y613800
X16800Y618800
X16800Y623800
X16800Y628693
X16800Y633800
X16800Y638800
X16800Y643800
X16800Y648800
X16800Y653800
X16800Y658800
X687800Y708800
X704785Y731800
X725800Y704800
X757813Y705787
X770800Y645800
X730800Y645800
X696800Y671800
X688800Y612800
T02
X306080Y559855
X311080Y559855
X321080Y559855
X389583Y559855
X394583Y559855
X404583Y559855
X473087Y559855
X478087Y559855
X488087Y559855
X556591Y559855
X561591Y559855
X571591Y559855
X640095Y559855
X645095Y559855
X655095Y559855
X723599Y559855
X728599Y559855
X738599Y559855
X738599Y476351
X728599Y476351
X723599Y476351
X655095Y476351
X645095Y476351
X640095Y476351
X571591Y476351
X561591Y476351
X556591Y476351
X488087Y476351
X478087Y476351
X473087Y476351
X404583Y476351
X394583Y476351
X389583Y476351
X321080Y476351
X311080Y476351
X306080Y476351
X306080Y392847
X311080Y392847
X321080Y392847
X389583Y392847
X394583Y392847
X404583Y392847
X473087Y392847
X478087Y392847
X488087Y392847
X556591Y392847
X561591Y392847
X571591Y392847
X640095Y392847
X645095Y392847
X655095Y392847
X723599Y392847
X728599Y392847
X738599Y392847
X738599Y309343
X728599Y309343
X723599Y309343
X655095Y309343
X645095Y309343
X640095Y309343
X571591Y309343
X561591Y309343
X556591Y309343
X488087Y309343
X478087Y309343
X473087Y309343
X404583Y309343
X394583Y309343
X389583Y309343
X321080Y309343
X311080Y309343
X306080Y309343
X306080Y225839
X311080Y225839
X321080Y225839
X389583Y225839
X394583Y225839
X404583Y225839
X473087Y225839
X478087Y225839
X488087Y225839
X556591Y225839
X561591Y225839
X571591Y225839
X640095Y225839
X645095Y225839
X655095Y225839
X723599Y225839
X728599Y225839
X738599Y225839
X738599Y142335
X728599Y142335
X723599Y142335
X655095Y142335
X645095Y142335
X640095Y142335
X571591Y142335
X561591Y142335
X556591Y142335
X488087Y142335
X478087Y142335
X473087Y142335
X404583Y142335
X394583Y142335
X389583Y142335
X321080Y142335
X311080Y142335
X306080Y142335
T03
X704800Y700800
X704800Y714800
T04
X150469Y432540
X90469Y432540
T05
X353643Y581115
X439643Y581115
X521643Y580115
X605643Y580115
X688635Y580414
X762635Y580414
X742800Y670800
X742800Y690800
T06
X90469Y669548
X150469Y669548
T07
X770800Y370700
X770800Y350900
T08
X21800Y21800
X21800Y726800
X766800Y725800
X766800Y21800
M30
